M48
;Layer_Color=9474304
;FILE_FORMAT=4:4
METRIC,LZ
;TYPE=PLATED
T01F00S00C0.4000
T02F00S00C0.7000
T03F00S00C0.8500
T04F00S00C0.9500
T05F00S00C1.1000
T06F00S00C1.1200
T07F00S00C1.2000
T08F00S00C1.5500
T09F00S00C2.5000
%
T01
X0006Y0001
X0007
X00065Y0002
X0006Y0003
X00075Y0004
X0007Y0005
X0008
X00085Y0006
X00075
Y0008
X00085
X00095
X00105
X00115
X00125
X00135
X00145
X00155
X0015Y0009
X0014
X0013
X0012
X0011
X001
X0009
X0008
X0007
X00075Y001
X00085
X0008Y0011
X0009
X00085Y0012
X00075
X00065
X0007Y0011
X00065Y001
Y0008
X00045
Y001
X0004Y0011
X0003
X00035Y0012
X00045
X0004Y0013
X00045Y0014
X00035
X0003Y0015
X0004
X00035Y0016
X00065
X0006Y0017
X00065Y0018
X00055
X00045
X0004Y0019
X0005
X0006
X00065Y002
X00055
X00045
X00035
X0004Y0021
X0005
X0006
X00065Y0022
X00055
X00045
X00035
X0004Y0023
X0005
X0006
X0007
X00065Y0024
X00055
X00045
X00035
X0005Y0025
X0006
X0007
X00065Y0026
X00055
X0009Y0025
Y0023
X0012
X0013
X00125Y0024
X00145
X00155
X00165
X00175
X00185
X00195
X00205
X00215
X0021Y0025
X0022
X0023
X00235Y0026
X00225
X00215
X00205
X00195
X00185
X00175
X00165
X00155
X00145
X00135
X00125
X0012Y0027
X0013
X0014
X0015
X0016
X0017
X0018
X0019
X002
X0021
X0022
X0023
X0024
X00245Y0028
X00255
X00265
X00275
X00285
X00295
X003Y0025
Y0023
X0027
Y0025
X00325Y0024
X00295Y002
Y0018
X00345
X0034Y0017
X00345Y0016
X0033274Y001524
X00345Y0014
X0033Y0009
X0032
X0031
X00315Y0008
X00325
X0032Y0007
X0031
X00305Y0006
X00295Y0008
X00285
X0029Y0009
X0029464Y0010668
Y0011811
X00275Y0012
X0027Y0013
X0024
X00245Y0012
X00235
X00225
X0022Y0011
X0023
X0024
X00245Y001
X00235
X00225
X00215
X00205
X002Y0009
X0021
X0022
X0023
X0024
X00235Y0008
X00225
X00215
X00205
X00195
X00175
X0018Y0009
X00175Y001
X0018Y0011
X0019
X00195Y0012
X00185
X00175
X0018Y0013
X0019
X002
X0021
X00215Y0014
X00205
X00195
X00185
X00175
X0018Y0015
X0019
X002
X0021
X0022
X0023
X00235Y0016
X00225
X00215
X00205
X00195
X00185
X00175
X0018Y0017
X0019
X002
X0021
X0022
X0023
X0024
X00245Y0018
X00235
X00225
X00215
X00205
X00195
X00185
X00175
X0018Y0019
X0019
X002
X0021
X0022
X0023
X0024
Y0021
X0023
X0022
X0021Y0023
X002
X0019
X0018
X0017
X0016
Y0025
X0017
X0018
X0019
X002
X00205Y0028
X00215
X00225
X00235
X00195
X00185
X00175
X00165
X00155
X00145
X00135
X00125
X00115
X00105
X00095
X00085
X0014Y0025
X0015
X0014986Y0020193
X0015Y0019
X00155Y0018
X00145
X0014Y0017
X0015
X00155Y0016
X00145
X00135
X00125
X0012Y0017
X0013
Y0015
X0014
X0015
X00155Y0014
X00145
X00135
X00125
X0012Y0015
Y0013
X0013
X0014
X0015
X00155Y0012
X00145
X00135
X00125
X0012Y0011
X0013
X0014
X0015
X00155Y001
X00145
X00135
X00125
X0012Y0007
X0013
X0014
X0015
X0016
X00165Y0006
X00175
X00155
X00145
X00135
X00125
X00115
X0012Y0005
X0013
X0014
X0015
X0016
X00165Y0004
X00155
X00145
X00135
Y0002
X00145
X00155
X00165
X0016Y0001
X0015
X0014
X0013
X0012
X0011
X001
X00105Y0002
X00115
X00125
X0011Y0003
X001
X00105Y0004
X00025Y0006
X00015
X0001Y0007
X0002
X0001Y0009
X00015Y001
X0001Y0011
X00015Y0012
X0001Y0013
Y0015
X0007
X00065Y0014
X0009Y0015
X0012Y0019
X0017907Y0021082
X00215Y0006
X00225
X00235
X0023Y0005
X0022
X0021
X00215Y0004
Y0002
X00225
X00235
X00245
X00255
X0025Y0003
X0024
Y0001
X0025
X0026
X0027
Y0005
X00275Y0006
X00265
X0023Y0001
X0022
X0019
X0001Y0025
T02
X0002286Y0008168
X0005501Y0006858
X0010501
X0002286Y0013168
T03
X0008708Y0001397
Y0004064
X0017708
X0020138
Y0001397
X0017708
X0020138Y0006731
X0029138
Y0004064
Y0001397
T04
X0031242Y0021336
X0032512Y0022606
X0031242Y0023876
T05
X0002015Y0016764
Y0019314
Y0021864
T06
X0008001Y0013843
Y0016383
Y0018923
Y0021463
Y0024003
Y0026543
X0028321
Y0024003
Y0021463
Y0018923
Y0016383
Y0013843
T07
X0010541Y0011303
Y0013843
Y0016383
Y0018923
Y0021463
Y0024003
Y0026543
X0025781
Y0024003
Y0021463
Y0018923
Y0016383
Y0013843
Y0011303
X003175Y0011049
Y0013589
Y0016129
T08
X0032766Y000556
Y001905
T09
X0002667Y0002667
Y0027686
X0032766
Y0002667
M30
