G04*
G04 #@! TF.GenerationSoftware,Altium Limited,Altium Designer,25.8.1 (18)*
G04*
G04 Layer_Color=65535*
%FSLAX44Y44*%
%MOMM*%
G71*
G04*
G04 #@! TF.SameCoordinates,591AE639-5F93-457D-9E92-AC6843792E89*
G04*
G04*
G04 #@! TF.FilePolarity,Positive*
G04*
G01*
G75*
%ADD10C,0.2500*%
%ADD11C,0.2000*%
%ADD12C,0.1000*%
%ADD13C,0.2540*%
D10*
X318775Y193390D02*
G03*
X318775Y193390I-1250J0D01*
G01*
X21400Y251640D02*
G03*
X21400Y251640I-1250J0D01*
G01*
D11*
X49610Y264430D02*
G03*
X49610Y266430I0J1000D01*
G01*
D02*
G03*
X49610Y264430I0J-1000D01*
G01*
X316220Y200060D02*
G03*
X316220Y252060I-5618J26000D01*
G01*
X300175Y90890D02*
X347175Y84090D01*
X300175Y180890D02*
X347175Y187690D01*
X300175Y90890D02*
Y180890D01*
X347175Y84090D02*
Y187690D01*
X295270Y252060D02*
X316220D01*
X295270Y200060D02*
X316220D01*
X295270D02*
Y252060D01*
X2750Y245140D02*
X48750D01*
X2750Y141140D02*
X48750D01*
X2750D02*
Y245140D01*
X48750Y141140D02*
Y245140D01*
X43750Y141140D02*
Y245140D01*
X214880Y1970D02*
Y7230D01*
X277880Y20710D02*
Y25970D01*
X214880Y20710D02*
Y25970D01*
X277880Y1970D02*
Y7230D01*
X214880Y1970D02*
X277880D01*
X214880Y25970D02*
X277880D01*
X52510Y88580D02*
X107510D01*
Y48580D02*
Y58830D01*
Y78330D02*
Y88580D01*
X52510Y48580D02*
X107510D01*
X52510D02*
Y58830D01*
Y78330D02*
Y88580D01*
X42860Y79180D02*
Y134180D01*
X2860Y79180D02*
X13110D01*
X32610D02*
X42860D01*
X2860D02*
Y134180D01*
X13110D01*
X32610D02*
X42860D01*
X277880Y74050D02*
Y79310D01*
X214880Y55310D02*
Y60570D01*
X277880Y55310D02*
Y60570D01*
X214880Y74050D02*
Y79310D01*
X277880D01*
X214880Y55310D02*
X277880D01*
X100580Y52640D02*
X163580D01*
X100580Y28640D02*
X163580D01*
Y33900D01*
X100580Y47380D02*
Y52640D01*
X163580Y47380D02*
Y52640D01*
X100580Y28640D02*
Y33900D01*
X214880Y52640D02*
X277880D01*
X214880Y28640D02*
X277880D01*
Y33900D01*
X214880Y47380D02*
Y52640D01*
X277880Y47380D02*
Y52640D01*
X214880Y28640D02*
Y33900D01*
X100580Y1970D02*
X163580D01*
X100580Y25970D02*
X163580D01*
X100580Y20710D02*
Y25970D01*
X163580Y1970D02*
Y7230D01*
X100580Y1970D02*
Y7230D01*
X163580Y20710D02*
Y25970D01*
D12*
X54610Y329430D02*
X308610D01*
Y79430D02*
Y329430D01*
X54610Y79430D02*
X308610D01*
X54610D02*
Y329430D01*
X101110D02*
Y354830D01*
Y356430D01*
X262110D01*
Y329430D02*
Y356430D01*
D13*
X165913Y299207D02*
Y283972D01*
Y291590D01*
X176070D01*
Y299207D01*
Y283972D01*
X181148D02*
X186227D01*
X183688D01*
Y299207D01*
X181148Y296668D01*
X68577Y256537D02*
X55882D01*
X53342Y253997D01*
Y248919D01*
X55882Y246380D01*
X68577D01*
X53342Y241302D02*
Y236223D01*
Y238762D01*
X68577D01*
X66038Y241302D01*
X168914Y8892D02*
Y24128D01*
X176532D01*
X179071Y21588D01*
Y16510D01*
X176532Y13971D01*
X168914D01*
X173993D02*
X179071Y8892D01*
X194306Y24128D02*
X184149D01*
Y16510D01*
X189228Y19049D01*
X191767D01*
X194306Y16510D01*
Y11432D01*
X191767Y8892D01*
X186688D01*
X184149Y11432D01*
X52074Y31753D02*
Y46988D01*
X59692D01*
X62231Y44448D01*
Y39370D01*
X59692Y36831D01*
X52074D01*
X57153D02*
X62231Y31753D01*
X74927D02*
Y46988D01*
X67309Y39370D01*
X77466D01*
X163834Y58422D02*
Y73657D01*
X171452D01*
X173991Y71118D01*
Y66040D01*
X171452Y63501D01*
X163834D01*
X168913D02*
X173991Y58422D01*
X179069Y71118D02*
X181608Y73657D01*
X186687D01*
X189226Y71118D01*
Y68579D01*
X186687Y66040D01*
X184147D01*
X186687D01*
X189226Y63501D01*
Y60962D01*
X186687Y58422D01*
X181608D01*
X179069Y60962D01*
X168914Y34293D02*
Y49528D01*
X176532D01*
X179071Y46988D01*
Y41910D01*
X176532Y39371D01*
X168914D01*
X173993D02*
X179071Y34293D01*
X194306D02*
X184149D01*
X194306Y44449D01*
Y46988D01*
X191767Y49528D01*
X186688D01*
X184149Y46988D01*
X53343Y5082D02*
Y20317D01*
X60961D01*
X63500Y17778D01*
Y12700D01*
X60961Y10161D01*
X53343D01*
X58422D02*
X63500Y5082D01*
X68578D02*
X73657D01*
X71118D01*
Y20317D01*
X68578Y17778D01*
X281766Y88902D02*
Y99058D01*
X279227Y101597D01*
X274148D01*
X271609Y99058D01*
Y88902D01*
X274148Y86362D01*
X279227D01*
X276688Y91441D02*
X281766Y86362D01*
X279227D02*
X281766Y88902D01*
X297001Y86362D02*
X286844D01*
X297001Y96519D01*
Y99058D01*
X294462Y101597D01*
X289383D01*
X286844Y99058D01*
X298454Y46993D02*
Y62228D01*
X303533Y57149D01*
X308611Y62228D01*
Y46993D01*
X313689Y54610D02*
X323846D01*
X279404Y284482D02*
Y299718D01*
X284482Y294639D01*
X289561Y299718D01*
Y284482D01*
X294639Y292100D02*
X304796D01*
X299718Y297178D02*
Y287022D01*
X13459Y72894D02*
X10920Y75433D01*
X5841D01*
X3302Y72894D01*
Y62737D01*
X5841Y60198D01*
X10920D01*
X13459Y62737D01*
Y67815D01*
X8380D01*
X18537Y60198D02*
Y75433D01*
X28694Y60198D01*
Y75433D01*
X33772D02*
Y60198D01*
X41390D01*
X43929Y62737D01*
Y72894D01*
X41390Y75433D01*
X33772D01*
X125731Y83818D02*
X123192Y86357D01*
X118113D01*
X115574Y83818D01*
Y73662D01*
X118113Y71122D01*
X123192D01*
X125731Y73662D01*
X140966Y71122D02*
X130809D01*
X140966Y81279D01*
Y83818D01*
X138427Y86357D01*
X133348D01*
X130809Y83818D01*
X59688Y124460D02*
X62228Y126999D01*
Y132078D01*
X59688Y134617D01*
X49532D01*
X46993Y132078D01*
Y126999D01*
X49532Y124460D01*
X46993Y119382D02*
Y114303D01*
Y116842D01*
X62228D01*
X59688Y119382D01*
X50809Y294640D02*
X60965D01*
X55887Y299718D02*
Y289562D01*
X66044Y287022D02*
X71122D01*
X68583D01*
Y302257D01*
X66044Y299718D01*
X88896Y287022D02*
X78740D01*
X88896Y297179D01*
Y299718D01*
X86357Y302257D01*
X81279D01*
X78740Y299718D01*
X93975Y302257D02*
Y292101D01*
X99053Y287022D01*
X104131Y292101D01*
Y302257D01*
M02*
