G04*
G04 #@! TF.GenerationSoftware,Altium Limited,Altium Designer,25.8.1 (18)*
G04*
G04 Layer_Physical_Order=2*
G04 Layer_Color=16711680*
%FSLAX44Y44*%
%MOMM*%
G71*
G04*
G04 #@! TF.SameCoordinates,591AE639-5F93-457D-9E92-AC6843792E89*
G04*
G04*
G04 #@! TF.FilePolarity,Positive*
G04*
G01*
G75*
%ADD13C,0.2540*%
%ADD14C,1.7000*%
%ADD15R,1.7000X1.7000*%
%ADD19C,1.4500*%
%ADD23C,1.2000*%
%ADD27R,1.2000X1.2000*%
%ADD29R,1.2000X1.2000*%
%ADD31C,0.3048*%
%ADD32C,1.5000*%
%ADD33R,1.6800X1.6800*%
%ADD34C,1.6800*%
%ADD35C,1.8000*%
%ADD36C,1.3500*%
%ADD37C,5.0000*%
%ADD38C,2.0500*%
%ADD39R,1.3500X1.3500*%
%ADD40R,1.8000X1.8000*%
%ADD41C,0.6000*%
G36*
X67475Y302006D02*
X53528Y288059D01*
X51267D01*
X49763Y291011D01*
X47264Y294449D01*
X44259Y297454D01*
X40821Y299953D01*
X37034Y301882D01*
X36652Y302006D01*
X36894Y303530D01*
X66844D01*
X67475Y302006D01*
D02*
G37*
G36*
X267176Y155484D02*
Y149560D01*
X267430Y148284D01*
X268153Y147203D01*
X273390Y141965D01*
X272810Y139799D01*
Y137061D01*
X273519Y134416D01*
X274888Y132044D01*
X276824Y130108D01*
X279196Y128739D01*
X281841Y128030D01*
X284579D01*
X286875Y128645D01*
X287760Y127375D01*
X269810Y109425D01*
X268443Y110214D01*
X268810Y111582D01*
Y114478D01*
X268060Y117276D01*
X266612Y119784D01*
X264564Y121832D01*
X262056Y123280D01*
X259258Y124030D01*
X256362D01*
X253564Y123280D01*
X251056Y121832D01*
X249008Y119784D01*
X247560Y117276D01*
X246810Y114478D01*
Y111582D01*
X247560Y108784D01*
X249008Y106276D01*
X251056Y104228D01*
X253564Y102780D01*
X256362Y102030D01*
X259258D01*
X260626Y102397D01*
X261415Y101030D01*
X234839Y74454D01*
X210130D01*
Y76060D01*
X192818D01*
X192630Y76060D01*
X191294Y76514D01*
Y95139D01*
X251136Y154981D01*
X253564Y153580D01*
X256362Y152830D01*
X259258D01*
X262056Y153580D01*
X264564Y155028D01*
X265652Y156116D01*
X267176Y155484D01*
D02*
G37*
G36*
X334588Y106789D02*
Y77567D01*
X324440Y67419D01*
X322932Y67015D01*
X320138Y65402D01*
X317858Y63122D01*
X316245Y60328D01*
X315410Y57213D01*
Y53987D01*
X316173Y51139D01*
Y51120D01*
X313509Y49763D01*
X310071Y47264D01*
X307066Y44259D01*
X304568Y40821D01*
X302638Y37034D01*
X301654Y34006D01*
X300130Y34247D01*
Y49390D01*
X282630D01*
Y44233D01*
X264378D01*
X257593Y51018D01*
Y64552D01*
X294721Y101680D01*
X295635D01*
X297472Y102441D01*
X298758Y103727D01*
X299316Y103665D01*
X300282Y103260D01*
Y80927D01*
X294796Y75441D01*
X294757Y75464D01*
X292532Y76060D01*
X290228D01*
X288003Y75464D01*
X286007Y74312D01*
X284378Y72683D01*
X283226Y70687D01*
X282630Y68462D01*
Y66158D01*
X283226Y63933D01*
X284378Y61937D01*
X286007Y60308D01*
X288003Y59156D01*
X290228Y58560D01*
X292532D01*
X294757Y59156D01*
X296753Y60308D01*
X298382Y61937D01*
X299534Y63933D01*
X300130Y66158D01*
Y68462D01*
X299534Y70687D01*
X299511Y70726D01*
X305974Y77189D01*
X306696Y78270D01*
X306950Y79546D01*
Y105667D01*
X308474Y106075D01*
X309479Y104335D01*
X311345Y102469D01*
X313631Y101149D01*
X315976Y100521D01*
Y110490D01*
X317500D01*
Y112014D01*
X327976D01*
X328931Y112446D01*
X334588Y106789D01*
D02*
G37*
G36*
X300872Y280321D02*
X300660Y278985D01*
Y274735D01*
X301325Y270537D01*
X302638Y266496D01*
X304568Y262709D01*
X307066Y259271D01*
X310071Y256266D01*
X313509Y253768D01*
X317296Y251838D01*
X321338Y250525D01*
X325535Y249860D01*
X329785D01*
X333983Y250525D01*
X338024Y251838D01*
X341811Y253768D01*
X345249Y256266D01*
X348254Y259271D01*
X350752Y262709D01*
X352682Y266496D01*
X352806Y266878D01*
X354330Y266636D01*
Y115036D01*
X352865Y114592D01*
X352468Y115549D01*
X350946Y117533D01*
X332165Y136313D01*
X330181Y137836D01*
X329268Y138215D01*
X326936Y140546D01*
X325902Y142337D01*
X324625Y143614D01*
X325257Y145138D01*
X327876D01*
X329152Y145392D01*
X330233Y146115D01*
X331585Y147466D01*
X331745Y147400D01*
X333735D01*
X335572Y148161D01*
X336979Y149568D01*
X337740Y151405D01*
Y153395D01*
X336979Y155232D01*
X335572Y156639D01*
X333735Y157400D01*
X331745D01*
X329908Y156639D01*
X329524Y156255D01*
X328000Y156886D01*
Y171790D01*
X307000D01*
Y164624D01*
X304800D01*
X303524Y164370D01*
X302442Y163647D01*
X294823Y156027D01*
X294100Y154946D01*
X293846Y153670D01*
Y143856D01*
X292322Y143448D01*
X291532Y144816D01*
X289596Y146752D01*
X287224Y148121D01*
X284579Y148830D01*
X281841D01*
X279196Y148121D01*
X277591Y147194D01*
X273844Y150941D01*
Y156333D01*
X275368Y156964D01*
X276824Y155508D01*
X279196Y154139D01*
X281841Y153430D01*
X284579D01*
X287224Y154139D01*
X289596Y155508D01*
X291532Y157444D01*
X292901Y159816D01*
X293610Y162461D01*
Y165199D01*
X292901Y167844D01*
X291532Y170216D01*
X289596Y172152D01*
X287224Y173521D01*
X284579Y174230D01*
X281841D01*
X279196Y173521D01*
X276824Y172152D01*
X275368Y170696D01*
X273844Y171327D01*
Y181733D01*
X275368Y182364D01*
X276824Y180908D01*
X279196Y179539D01*
X281841Y178830D01*
X284579D01*
X287224Y179539D01*
X289596Y180908D01*
X291532Y182844D01*
X292901Y185216D01*
X293610Y187861D01*
Y190599D01*
X292901Y193244D01*
X291532Y195616D01*
X289596Y197552D01*
X287224Y198921D01*
X284579Y199630D01*
X281841D01*
X279196Y198921D01*
X276824Y197552D01*
X275368Y196096D01*
X273844Y196727D01*
Y201930D01*
X273590Y203206D01*
X272868Y204287D01*
X267588Y209567D01*
X268060Y210384D01*
X268810Y213182D01*
Y216078D01*
X268060Y218876D01*
X266612Y221384D01*
X264564Y223432D01*
X262056Y224880D01*
X259258Y225630D01*
X256362D01*
X253564Y224880D01*
X251056Y223432D01*
X249008Y221384D01*
X247560Y218876D01*
X246810Y216078D01*
Y213182D01*
X247560Y210384D01*
X249008Y207876D01*
X251056Y205828D01*
X253564Y204380D01*
X256362Y203630D01*
X259258D01*
X262056Y204380D01*
X262873Y204852D01*
X267176Y200549D01*
Y197576D01*
X265652Y196944D01*
X264564Y198032D01*
X262056Y199480D01*
X259258Y200230D01*
X256362D01*
X253564Y199480D01*
X252747Y199008D01*
X247467Y204287D01*
X246386Y205010D01*
X245110Y205264D01*
X182576D01*
X182297Y205810D01*
X182109Y206788D01*
X183309Y207988D01*
X184070Y209825D01*
Y211815D01*
X183309Y213652D01*
X181902Y215059D01*
X180065Y215820D01*
X178075D01*
X176238Y215059D01*
X175333Y214154D01*
X144780D01*
X143504Y213900D01*
X142423Y213178D01*
X134803Y205557D01*
X134080Y204476D01*
X133826Y203200D01*
Y191881D01*
X121809Y179864D01*
X113756D01*
X113124Y181388D01*
X114212Y182476D01*
X115660Y184984D01*
X116410Y187782D01*
Y190678D01*
X115660Y193476D01*
X114212Y195984D01*
X113097Y197100D01*
X113088Y197291D01*
X113635Y198716D01*
X114306Y198850D01*
X115387Y199573D01*
X134731Y218916D01*
X233680D01*
X234956Y219170D01*
X236038Y219893D01*
X249214Y233069D01*
X251056Y231228D01*
X253564Y229780D01*
X256362Y229030D01*
X259258D01*
X262056Y229780D01*
X264564Y231228D01*
X266612Y233276D01*
X268060Y235784D01*
X268810Y238582D01*
Y241478D01*
X268060Y244276D01*
X266612Y246784D01*
X264564Y248832D01*
X262056Y250280D01*
X259258Y251030D01*
X256362D01*
X253564Y250280D01*
X251056Y248832D01*
X249008Y246784D01*
X247560Y244276D01*
X246810Y241478D01*
Y239957D01*
X246395Y239680D01*
X232299Y225584D01*
X133350D01*
X132074Y225330D01*
X130992Y224608D01*
X117410Y211025D01*
X116043Y211814D01*
X116410Y213182D01*
Y216078D01*
X115660Y218876D01*
X114212Y221384D01*
X112164Y223432D01*
X109656Y224880D01*
X106858Y225630D01*
X103962D01*
X101164Y224880D01*
X98656Y223432D01*
X96608Y221384D01*
X95160Y218876D01*
X94410Y216078D01*
Y213182D01*
X95160Y210384D01*
X96608Y207876D01*
X97696Y206788D01*
X97064Y205264D01*
X92660D01*
X91384Y205010D01*
X90302Y204287D01*
X84602Y198587D01*
X84024Y198921D01*
X81379Y199630D01*
X78641D01*
X75996Y198921D01*
X73624Y197552D01*
X71688Y195616D01*
X70319Y193244D01*
X69610Y190599D01*
Y187861D01*
X70319Y185216D01*
X71688Y182844D01*
X73624Y180908D01*
X75996Y179539D01*
X78641Y178830D01*
X81379D01*
X84024Y179539D01*
X86396Y180908D01*
X88332Y182844D01*
X89701Y185216D01*
X90410Y187861D01*
Y190599D01*
X89701Y193244D01*
X89331Y193886D01*
X94041Y198596D01*
X97064D01*
X97696Y197072D01*
X96608Y195984D01*
X95160Y193476D01*
X94410Y190678D01*
Y187782D01*
X95160Y184984D01*
X96608Y182476D01*
X97696Y181388D01*
X97064Y179864D01*
X92660D01*
X91384Y179610D01*
X90302Y178888D01*
X84602Y173188D01*
X84024Y173521D01*
X81379Y174230D01*
X78641D01*
X75996Y173521D01*
X73624Y172152D01*
X71688Y170216D01*
X70319Y167844D01*
X69610Y165199D01*
Y162461D01*
X70319Y159816D01*
X71688Y157444D01*
X73624Y155508D01*
X75996Y154139D01*
X78641Y153430D01*
X81379D01*
X84024Y154139D01*
X86396Y155508D01*
X88332Y157444D01*
X89701Y159816D01*
X90410Y162461D01*
Y165199D01*
X89701Y167844D01*
X89331Y168486D01*
X94041Y173196D01*
X97064D01*
X97696Y171672D01*
X96608Y170584D01*
X95160Y168076D01*
X94410Y165278D01*
Y162382D01*
X95160Y159584D01*
X96608Y157076D01*
X98656Y155028D01*
X101164Y153580D01*
X103962Y152830D01*
X106858D01*
X109656Y153580D01*
X112164Y155028D01*
X114212Y157076D01*
X115660Y159584D01*
X116410Y162382D01*
Y165278D01*
X115660Y168076D01*
X114212Y170584D01*
X113124Y171672D01*
X113756Y173196D01*
X123190D01*
X124466Y173450D01*
X125548Y174172D01*
X139517Y188142D01*
X140240Y189224D01*
X140494Y190500D01*
Y201819D01*
X145156Y206481D01*
X145180Y206488D01*
X145189Y206486D01*
X145621Y204762D01*
X144860Y202925D01*
Y200935D01*
X145621Y199098D01*
X147028Y197691D01*
X148865Y196930D01*
X150855D01*
X152692Y197691D01*
X153597Y198596D01*
X243729D01*
X248032Y194293D01*
X247560Y193476D01*
X246810Y190678D01*
Y187782D01*
X247560Y184984D01*
X249008Y182476D01*
X251056Y180428D01*
X253564Y178980D01*
X256362Y178230D01*
X259258D01*
X262056Y178980D01*
X264564Y180428D01*
X265652Y181516D01*
X267176Y180884D01*
Y172176D01*
X265652Y171544D01*
X264564Y172632D01*
X262056Y174080D01*
X259258Y174830D01*
X256362D01*
X253564Y174080D01*
X251056Y172632D01*
X249008Y170584D01*
X247560Y168076D01*
X246810Y165278D01*
Y162382D01*
X247295Y160570D01*
X185602Y98877D01*
X184880Y97796D01*
X184626Y96520D01*
Y49390D01*
X168330D01*
Y31890D01*
X173746D01*
Y22135D01*
X173703Y22124D01*
X171707Y20972D01*
X170078Y19343D01*
X168926Y17347D01*
X168330Y15122D01*
Y12818D01*
X168926Y10593D01*
X170078Y8597D01*
X171707Y6968D01*
X173703Y5816D01*
X175928Y5220D01*
X178232D01*
X180457Y5816D01*
X182453Y6968D01*
X184082Y8597D01*
X185234Y10593D01*
X185830Y12818D01*
Y15122D01*
X185234Y17347D01*
X184082Y19343D01*
X182453Y20972D01*
X180457Y22124D01*
X180414Y22135D01*
Y31890D01*
X185693D01*
X185791Y31744D01*
X195323Y22212D01*
X195208Y20172D01*
X194378Y19343D01*
X193226Y17347D01*
X192630Y15122D01*
Y12818D01*
X193226Y10593D01*
X194378Y8597D01*
X196007Y6968D01*
X198003Y5816D01*
X200228Y5220D01*
X202532D01*
X204757Y5816D01*
X206753Y6968D01*
X208382Y8597D01*
X209534Y10593D01*
X210130Y12818D01*
Y15122D01*
X209534Y17347D01*
X208382Y19343D01*
X206753Y20972D01*
X204757Y22124D01*
X203198Y22541D01*
X202983Y23623D01*
X202260Y24705D01*
X191482Y35483D01*
Y37884D01*
X193006Y38084D01*
X193226Y37263D01*
X194378Y35267D01*
X196007Y33638D01*
X198003Y32486D01*
X200228Y31890D01*
X202532D01*
X204757Y32486D01*
X206753Y33638D01*
X208382Y35267D01*
X209534Y37263D01*
X210130Y39488D01*
Y41792D01*
X209534Y44017D01*
X208382Y46013D01*
X206753Y47642D01*
X204757Y48794D01*
X202532Y49390D01*
X200228D01*
X198003Y48794D01*
X196007Y47642D01*
X194378Y46013D01*
X193226Y44017D01*
X193006Y43196D01*
X191482Y43396D01*
Y49179D01*
X191294Y50124D01*
Y58106D01*
X192630Y58560D01*
X192818Y58560D01*
X210130D01*
Y67786D01*
X236220D01*
X237496Y68040D01*
X238577Y68762D01*
X242492Y72677D01*
X242803Y72627D01*
X244051Y71114D01*
Y68792D01*
X243839Y68581D01*
X243060Y67415D01*
X242787Y66040D01*
Y46990D01*
X243060Y45615D01*
X243839Y44449D01*
X276859Y11429D01*
X278025Y10650D01*
X279400Y10377D01*
X281434D01*
X282420Y9214D01*
X281582Y4172D01*
X280670Y3260D01*
Y0D01*
X35353D01*
X35112Y1524D01*
X36852Y2089D01*
X40572Y3985D01*
X43949Y6439D01*
X46901Y9391D01*
X49355Y12768D01*
X51251Y16488D01*
X52541Y20459D01*
X53194Y24583D01*
Y25146D01*
X26670D01*
Y26670D01*
X25146D01*
Y53194D01*
X24583D01*
X20459Y52541D01*
X16488Y51251D01*
X12768Y49355D01*
X9391Y46901D01*
X6439Y43949D01*
X3985Y40572D01*
X2089Y36852D01*
X1524Y35112D01*
X0Y35353D01*
Y266636D01*
X1524Y266878D01*
X1648Y266496D01*
X3577Y262709D01*
X6076Y259271D01*
X9081Y256266D01*
X12519Y253768D01*
X16306Y251838D01*
X18758Y251041D01*
Y244351D01*
X9034Y234627D01*
X8586Y234538D01*
X8586Y234538D01*
X8586Y234538D01*
X8151Y234248D01*
X7504Y233816D01*
X4974Y231286D01*
X4252Y230205D01*
X3998Y228929D01*
Y193140D01*
X3984D01*
X4002Y192777D01*
X4028Y191628D01*
X4287Y180095D01*
X4420Y179496D01*
X4540Y178894D01*
X4561Y178863D01*
X4569Y178825D01*
X4922Y178323D01*
X5262Y177813D01*
X6006Y177069D01*
X6006Y177069D01*
X10738Y172337D01*
X10366Y171693D01*
X9650Y169022D01*
Y166258D01*
X10366Y163587D01*
X11748Y161193D01*
X13703Y159238D01*
X16097Y157856D01*
X16816Y157663D01*
Y139680D01*
X14860D01*
Y123680D01*
X19526D01*
Y103205D01*
X19780Y101929D01*
X20503Y100848D01*
X30956Y90394D01*
Y85753D01*
X29432Y85345D01*
X28881Y86300D01*
X27480Y87701D01*
X25764Y88691D01*
X24384Y89061D01*
Y81680D01*
Y74299D01*
X25764Y74669D01*
X27480Y75659D01*
X28881Y77060D01*
X29432Y78015D01*
X30956Y77607D01*
Y68030D01*
X31210Y66754D01*
X31932Y65672D01*
X78330Y19275D01*
Y5220D01*
X95830D01*
Y22720D01*
X84315D01*
X47979Y59056D01*
X48610Y60580D01*
X63010D01*
Y76580D01*
X58344D01*
Y158280D01*
X58090Y159556D01*
X57368Y160638D01*
X29562Y188443D01*
X29934Y189087D01*
X30650Y191758D01*
Y194522D01*
X29934Y197193D01*
X28552Y199587D01*
X26597Y201542D01*
X24203Y202924D01*
X21532Y203640D01*
X18768D01*
X16097Y202924D01*
X13703Y201542D01*
X12190Y200029D01*
X10666Y200655D01*
Y208616D01*
X18626D01*
Y218640D01*
Y228664D01*
X14656D01*
X14476Y228873D01*
X14025Y230188D01*
X24449Y240613D01*
X25172Y241694D01*
X25426Y242970D01*
Y249860D01*
X28795D01*
X32992Y250525D01*
X37034Y251838D01*
X40821Y253768D01*
X44259Y256266D01*
X47264Y259271D01*
X49763Y262709D01*
X51692Y266496D01*
X52471Y268895D01*
X57497D01*
X59977Y269221D01*
X62288Y270179D01*
X64272Y271702D01*
X78899Y286328D01*
X294864D01*
X300872Y280321D01*
D02*
G37*
G36*
X13703Y184738D02*
X16097Y183356D01*
X18768Y182640D01*
X21532D01*
X24203Y183356D01*
X24847Y183728D01*
X51676Y156899D01*
Y76580D01*
X47010D01*
Y62180D01*
X45486Y61549D01*
X37624Y69411D01*
Y91775D01*
X37370Y93051D01*
X36648Y94132D01*
X26194Y104586D01*
Y123680D01*
X30860D01*
Y139680D01*
X23484D01*
Y157663D01*
X24203Y157856D01*
X26597Y159238D01*
X28552Y161193D01*
X29934Y163587D01*
X30650Y166258D01*
Y169022D01*
X29934Y171693D01*
X28552Y174087D01*
X26597Y176042D01*
X24203Y177424D01*
X21532Y178140D01*
X18768D01*
X16097Y177424D01*
X15453Y177052D01*
X10923Y181582D01*
X10836Y185449D01*
X12346Y186094D01*
X13703Y184738D01*
D02*
G37*
%LPC*%
G36*
X259334Y148917D02*
Y139954D01*
X268297D01*
X267617Y142492D01*
X266231Y144892D01*
X264272Y146851D01*
X261872Y148237D01*
X259334Y148917D01*
D02*
G37*
G36*
X256286D02*
X253748Y148237D01*
X251348Y146851D01*
X249389Y144892D01*
X248003Y142492D01*
X247323Y139954D01*
X256286D01*
Y148917D01*
D02*
G37*
G36*
X268297Y136906D02*
X259334D01*
Y127943D01*
X261872Y128623D01*
X264272Y130009D01*
X266231Y131968D01*
X267617Y134368D01*
X268297Y136906D01*
D02*
G37*
G36*
X256286D02*
X247323D01*
X248003Y134368D01*
X249389Y131968D01*
X251348Y130009D01*
X253748Y128623D01*
X256286Y127943D01*
Y136906D01*
D02*
G37*
G36*
X327469Y108966D02*
X319024D01*
Y100521D01*
X321369Y101149D01*
X323655Y102469D01*
X325521Y104335D01*
X326841Y106621D01*
X327469Y108966D01*
D02*
G37*
G36*
X293134Y275354D02*
X284734D01*
Y266954D01*
X293134D01*
Y275354D01*
D02*
G37*
G36*
X281686D02*
X273286D01*
Y266954D01*
X281686D01*
Y275354D01*
D02*
G37*
G36*
X89934D02*
X81534D01*
Y266954D01*
X89934D01*
Y275354D01*
D02*
G37*
G36*
X78486D02*
X70086D01*
Y266954D01*
X78486D01*
Y275354D01*
D02*
G37*
G36*
X293134Y263906D02*
X284734D01*
Y255506D01*
X293134D01*
Y263906D01*
D02*
G37*
G36*
X281686D02*
X273286D01*
Y255506D01*
X281686D01*
Y263906D01*
D02*
G37*
G36*
X89934D02*
X81534D01*
Y255506D01*
X89934D01*
Y263906D01*
D02*
G37*
G36*
X78486D02*
X70086D01*
Y255506D01*
X78486D01*
Y263906D01*
D02*
G37*
G36*
X259258Y276430D02*
X256362D01*
X253564Y275680D01*
X251056Y274232D01*
X249008Y272184D01*
X247560Y269676D01*
X246810Y266878D01*
Y263982D01*
X247560Y261184D01*
X249008Y258676D01*
X251056Y256628D01*
X253564Y255180D01*
X256362Y254430D01*
X259258D01*
X262056Y255180D01*
X264564Y256628D01*
X266612Y258676D01*
X268060Y261184D01*
X268810Y263982D01*
Y266878D01*
X268060Y269676D01*
X266612Y272184D01*
X264564Y274232D01*
X262056Y275680D01*
X259258Y276430D01*
D02*
G37*
G36*
X106858D02*
X103962D01*
X101164Y275680D01*
X98656Y274232D01*
X96608Y272184D01*
X95160Y269676D01*
X94410Y266878D01*
Y263982D01*
X95160Y261184D01*
X96608Y258676D01*
X98656Y256628D01*
X101164Y255180D01*
X103962Y254430D01*
X106858D01*
X109656Y255180D01*
X112164Y256628D01*
X114212Y258676D01*
X115660Y261184D01*
X116410Y263982D01*
Y266878D01*
X115660Y269676D01*
X114212Y272184D01*
X112164Y274232D01*
X109656Y275680D01*
X106858Y276430D01*
D02*
G37*
G36*
X81534Y249896D02*
Y241554D01*
X89876D01*
X89258Y243860D01*
X87951Y246124D01*
X86103Y247971D01*
X83841Y249278D01*
X81534Y249896D01*
D02*
G37*
G36*
X78486D02*
X76179Y249278D01*
X73917Y247971D01*
X72069Y246124D01*
X70762Y243860D01*
X70144Y241554D01*
X78486D01*
Y249896D01*
D02*
G37*
G36*
X313944Y247435D02*
Y240284D01*
X321095D01*
X320596Y242147D01*
X319441Y244147D01*
X317807Y245781D01*
X315807Y246936D01*
X313944Y247435D01*
D02*
G37*
G36*
X310896D02*
X309033Y246936D01*
X307033Y245781D01*
X305399Y244147D01*
X304244Y242147D01*
X303745Y240284D01*
X310896D01*
Y247435D01*
D02*
G37*
G36*
X89876Y238506D02*
X81534D01*
Y230164D01*
X83841Y230782D01*
X86103Y232089D01*
X87951Y233937D01*
X89258Y236199D01*
X89876Y238506D01*
D02*
G37*
G36*
X78486D02*
X70144D01*
X70762Y236199D01*
X72069Y233937D01*
X73917Y232089D01*
X76179Y230782D01*
X78486Y230164D01*
Y238506D01*
D02*
G37*
G36*
X310896Y237236D02*
X303745D01*
X304244Y235373D01*
X305399Y233373D01*
X307033Y231739D01*
X309033Y230584D01*
X310896Y230085D01*
Y237236D01*
D02*
G37*
G36*
X284579Y250430D02*
X281841D01*
X279196Y249721D01*
X276824Y248352D01*
X274888Y246416D01*
X273519Y244044D01*
X272810Y241399D01*
Y238661D01*
X273519Y236016D01*
X274888Y233644D01*
X276824Y231708D01*
X279196Y230339D01*
X281841Y229630D01*
X284579D01*
X287224Y230339D01*
X289596Y231708D01*
X291532Y233644D01*
X292901Y236016D01*
X293610Y238661D01*
Y241399D01*
X292901Y244044D01*
X291532Y246416D01*
X289596Y248352D01*
X287224Y249721D01*
X284579Y250430D01*
D02*
G37*
G36*
X106858Y251030D02*
X103962D01*
X101164Y250280D01*
X98656Y248832D01*
X96608Y246784D01*
X95160Y244276D01*
X94410Y241478D01*
Y238582D01*
X95160Y235784D01*
X96608Y233276D01*
X98656Y231228D01*
X101164Y229780D01*
X103962Y229030D01*
X106858D01*
X109656Y229780D01*
X112164Y231228D01*
X114212Y233276D01*
X115660Y235784D01*
X116410Y238582D01*
Y241478D01*
X115660Y244276D01*
X114212Y246784D01*
X112164Y248832D01*
X109656Y250280D01*
X106858Y251030D01*
D02*
G37*
G36*
X321095Y237236D02*
X313944D01*
Y230085D01*
X315197Y230420D01*
X315637Y230154D01*
X316367Y229309D01*
X316396Y229241D01*
X315870Y227278D01*
Y224842D01*
X316232Y223493D01*
X314987Y222248D01*
X313638Y222610D01*
X311202D01*
X308850Y221980D01*
X306740Y220762D01*
X305018Y219040D01*
X303800Y216930D01*
X303170Y214578D01*
Y212142D01*
X303800Y209790D01*
X305018Y207680D01*
X306740Y205958D01*
X308850Y204740D01*
X311202Y204110D01*
X313638D01*
X315158Y204517D01*
X315568Y204267D01*
X315736Y204152D01*
X316655Y203504D01*
X317402Y202756D01*
X318799Y201359D01*
X319018Y201141D01*
X319453Y199617D01*
X317858Y198022D01*
X316245Y195228D01*
X315410Y192113D01*
Y188887D01*
X316245Y185772D01*
X317858Y182978D01*
X320138Y180698D01*
X322932Y179085D01*
X326047Y178250D01*
X329273D01*
X332388Y179085D01*
X335182Y180698D01*
X337462Y182978D01*
X339075Y185772D01*
X339910Y188887D01*
Y192113D01*
X339075Y195228D01*
X337462Y198022D01*
X335182Y200302D01*
X332388Y201915D01*
X329273Y202750D01*
X326047D01*
X322932Y201915D01*
X320839Y200707D01*
X319495Y201141D01*
X316941Y203302D01*
X316720Y204632D01*
X316712Y205157D01*
X318100Y205958D01*
X319822Y207680D01*
X321040Y209790D01*
X321670Y212142D01*
Y214578D01*
X321308Y215927D01*
X322553Y217172D01*
X323902Y216810D01*
X326338D01*
X328690Y217440D01*
X330800Y218658D01*
X332522Y220380D01*
X333740Y222490D01*
X334370Y224842D01*
Y227278D01*
X333740Y229630D01*
X332522Y231740D01*
X330800Y233462D01*
X328690Y234680D01*
X326338Y235310D01*
X323902D01*
X321939Y234784D01*
X321871Y234813D01*
X321026Y235543D01*
X320760Y235983D01*
X321095Y237236D01*
D02*
G37*
G36*
X30174Y228664D02*
X21674D01*
Y220164D01*
X30174D01*
Y228664D01*
D02*
G37*
G36*
Y217116D02*
X21674D01*
Y208616D01*
X30174D01*
Y217116D01*
D02*
G37*
G36*
X284579Y225030D02*
X281841D01*
X279196Y224321D01*
X276824Y222952D01*
X274888Y221016D01*
X273519Y218644D01*
X272810Y215999D01*
Y213261D01*
X273519Y210616D01*
X274888Y208244D01*
X276824Y206308D01*
X279196Y204939D01*
X281841Y204230D01*
X284579D01*
X287224Y204939D01*
X289596Y206308D01*
X291532Y208244D01*
X292901Y210616D01*
X293610Y213261D01*
Y215999D01*
X292901Y218644D01*
X291532Y221016D01*
X289596Y222952D01*
X287224Y224321D01*
X284579Y225030D01*
D02*
G37*
G36*
X81379D02*
X78641D01*
X75996Y224321D01*
X73624Y222952D01*
X71688Y221016D01*
X70319Y218644D01*
X69610Y215999D01*
Y213261D01*
X70319Y210616D01*
X71688Y208244D01*
X73624Y206308D01*
X75996Y204939D01*
X78641Y204230D01*
X81379D01*
X84024Y204939D01*
X86396Y206308D01*
X88332Y208244D01*
X89701Y210616D01*
X90410Y213261D01*
Y215999D01*
X89701Y218644D01*
X88332Y221016D01*
X86396Y222952D01*
X84024Y224321D01*
X81379Y225030D01*
D02*
G37*
G36*
Y148830D02*
X78641D01*
X75996Y148121D01*
X73624Y146752D01*
X71688Y144816D01*
X70319Y142444D01*
X69610Y139799D01*
Y137061D01*
X70319Y134416D01*
X71688Y132044D01*
X73624Y130108D01*
X75996Y128739D01*
X78641Y128030D01*
X81379D01*
X84024Y128739D01*
X86396Y130108D01*
X88332Y132044D01*
X89701Y134416D01*
X90410Y137061D01*
Y139799D01*
X89701Y142444D01*
X88332Y144816D01*
X86396Y146752D01*
X84024Y148121D01*
X81379Y148830D01*
D02*
G37*
G36*
X106858Y149430D02*
X103962D01*
X101164Y148680D01*
X98656Y147232D01*
X96608Y145184D01*
X95160Y142676D01*
X94410Y139878D01*
Y136982D01*
X95160Y134184D01*
X96608Y131676D01*
X98656Y129628D01*
X101164Y128180D01*
X103962Y127430D01*
X106858D01*
X109656Y128180D01*
X112164Y129628D01*
X114212Y131676D01*
X115660Y134184D01*
X116410Y136982D01*
Y139878D01*
X115660Y142676D01*
X114212Y145184D01*
X112164Y147232D01*
X109656Y148680D01*
X106858Y149430D01*
D02*
G37*
G36*
X116410Y124030D02*
X94410D01*
Y102030D01*
X116410D01*
Y124030D01*
D02*
G37*
G36*
X21336Y89061D02*
X19956Y88691D01*
X18240Y87701D01*
X16839Y86300D01*
X15849Y84584D01*
X15479Y83204D01*
X21336D01*
Y89061D01*
D02*
G37*
G36*
Y80156D02*
X15479D01*
X15849Y78776D01*
X16839Y77060D01*
X18240Y75659D01*
X19956Y74669D01*
X21336Y74299D01*
Y80156D01*
D02*
G37*
G36*
X106534Y75961D02*
Y70104D01*
X112391D01*
X112021Y71484D01*
X111031Y73200D01*
X109630Y74601D01*
X107914Y75591D01*
X106534Y75961D01*
D02*
G37*
G36*
X103486D02*
X102106Y75591D01*
X100390Y74601D01*
X98989Y73200D01*
X97999Y71484D01*
X97629Y70104D01*
X103486D01*
Y75961D01*
D02*
G37*
G36*
X112391Y67056D02*
X106534D01*
Y61199D01*
X107914Y61569D01*
X109630Y62559D01*
X111031Y63960D01*
X112021Y65676D01*
X112391Y67056D01*
D02*
G37*
G36*
X103486D02*
X97629D01*
X97999Y65676D01*
X98989Y63960D01*
X100390Y62559D01*
X102106Y61569D01*
X103486Y61199D01*
Y67056D01*
D02*
G37*
G36*
X88604Y48797D02*
Y42164D01*
X95238D01*
X94790Y43834D01*
X93701Y45720D01*
X92160Y47261D01*
X90274Y48350D01*
X88604Y48797D01*
D02*
G37*
G36*
X85556D02*
X83886Y48350D01*
X82000Y47261D01*
X80459Y45720D01*
X79370Y43834D01*
X78923Y42164D01*
X85556D01*
Y48797D01*
D02*
G37*
G36*
X95238Y39116D02*
X88604D01*
Y32483D01*
X90274Y32930D01*
X92160Y34019D01*
X93701Y35560D01*
X94790Y37446D01*
X95238Y39116D01*
D02*
G37*
G36*
X85556D02*
X78923D01*
X79370Y37446D01*
X80459Y35560D01*
X82000Y34019D01*
X83886Y32930D01*
X85556Y32483D01*
Y39116D01*
D02*
G37*
G36*
X28758Y53194D02*
X28194D01*
Y28194D01*
X53194D01*
Y28758D01*
X52541Y32881D01*
X51251Y36852D01*
X49355Y40572D01*
X46901Y43949D01*
X43949Y46901D01*
X40572Y49355D01*
X36852Y51251D01*
X32881Y52541D01*
X28758Y53194D01*
D02*
G37*
%LPD*%
D13*
X306620Y145526D02*
G03*
X304227Y143132I7245J-9636D01*
G01*
X7332Y193140D02*
G03*
X7335Y192852I12818J0D01*
G01*
X303616Y79546D02*
Y142322D01*
X304227Y143132D01*
X307575Y146246D02*
X309058Y147728D01*
X309802Y148472D01*
X306620Y145526D02*
X307575Y146246D01*
X309802Y148472D02*
X327876D01*
X294960Y70890D02*
X303616Y79546D01*
X327876Y148472D02*
X331804Y152400D01*
X332740D01*
X144780Y210820D02*
X179070D01*
X137160Y190500D02*
Y203200D01*
X144780Y210820D01*
X123190Y176530D02*
X137160Y190500D01*
X92660Y176530D02*
X123190D01*
X149860Y201930D02*
X245110D01*
X256540Y190500D01*
X304800Y161290D02*
X317500D01*
X297180Y132080D02*
Y153670D01*
X304800Y161290D01*
X236220Y71120D02*
X297180Y132080D01*
X201380Y71120D02*
X236220D01*
X270510Y149560D02*
Y201930D01*
X257810Y214630D02*
X270510Y201930D01*
Y149560D02*
X282400Y137670D01*
X22860Y103205D02*
X34290Y91775D01*
Y68030D02*
Y91775D01*
Y68030D02*
X87080Y15240D01*
X10580Y231458D02*
X11298Y232176D01*
X9862Y231458D02*
X10580Y231458D01*
X7332Y193140D02*
Y228929D01*
X7335Y192852D02*
X7620Y180170D01*
X8364Y179426D01*
X20150Y167640D01*
X11298Y232176D02*
X22092Y242970D01*
X7332Y228929D02*
X9862Y231458D01*
X291610Y70890D02*
X294960D01*
X187960Y49367D02*
Y96520D01*
X258492Y167052D01*
X187960Y49367D02*
X188148Y49179D01*
Y34102D02*
Y49179D01*
X256540Y190500D02*
X257810D01*
X133350Y222250D02*
X233680D01*
X113030Y201930D02*
X133350Y222250D01*
X233680D02*
X248752Y237322D01*
X92660Y201930D02*
X113030D01*
X79200Y188470D02*
X92660Y201930D01*
X253626Y241300D02*
X257810D01*
X248752Y237322D02*
X249648D01*
X253626Y241300D01*
X79200Y163070D02*
X92660Y176530D01*
X188148Y34102D02*
X199903Y22347D01*
X55010Y68580D02*
Y158280D01*
X20150Y193140D02*
X55010Y158280D01*
X199903Y16717D02*
X201380Y15240D01*
X199903Y16717D02*
Y22347D01*
X22092Y242970D02*
Y265932D01*
X27940Y271780D01*
X22860Y103205D02*
Y131680D01*
X20150Y134390D02*
Y167640D01*
Y134390D02*
X22860Y131680D01*
X177080Y15240D02*
Y44450D01*
D14*
X317500Y110490D02*
D03*
Y135890D02*
D03*
X20150Y193140D02*
D03*
Y167640D02*
D03*
D15*
X317500Y161290D02*
D03*
X20150Y218640D02*
D03*
D19*
X312420Y238760D02*
D03*
Y213360D02*
D03*
X325120Y226060D02*
D03*
D23*
X105010Y68580D02*
D03*
X22860Y81680D02*
D03*
D27*
X55010Y68580D02*
D03*
D29*
X22860Y131680D02*
D03*
D31*
X254000Y66040D02*
X294640Y106680D01*
X254000Y49530D02*
Y66040D01*
Y49530D02*
X262890Y40640D01*
X291380D01*
X247644Y71114D02*
X294640Y118110D01*
X247644Y67304D02*
Y71114D01*
X246380Y66040D02*
X247644Y67304D01*
X246380Y46990D02*
Y66040D01*
Y46990D02*
X279400Y13970D01*
X291380D01*
D32*
X344170Y52651D02*
Y73598D01*
X327660Y57088D02*
X344170Y73598D01*
X327660Y36141D02*
X344170Y52651D01*
X327660Y26670D02*
Y36141D01*
X317500Y135890D02*
X318041D01*
X324393Y129538D02*
X325390D01*
X344170Y110758D01*
X318041Y135890D02*
X324393Y129538D01*
X344170Y73598D02*
Y110758D01*
X325755Y29845D02*
Y55600D01*
X327660D02*
Y57088D01*
X325755Y29845D02*
X326390Y29210D01*
X34637Y278477D02*
X57497D01*
X298833Y295910D02*
X312277Y282466D01*
X74930Y295910D02*
X298833D01*
X33020Y276860D02*
X34637Y278477D01*
X57497D02*
X74930Y295910D01*
X312277Y276860D02*
Y282466D01*
D33*
X80010Y265430D02*
D03*
X283210D02*
D03*
D34*
X80010Y240030D02*
D03*
Y214630D02*
D03*
Y189230D02*
D03*
Y163830D02*
D03*
Y138430D02*
D03*
X283210Y240030D02*
D03*
Y214630D02*
D03*
Y189230D02*
D03*
Y163830D02*
D03*
Y138430D02*
D03*
D35*
X257810D02*
D03*
X105410D02*
D03*
Y163830D02*
D03*
Y189230D02*
D03*
Y214630D02*
D03*
Y240030D02*
D03*
Y265430D02*
D03*
X257810D02*
D03*
Y240030D02*
D03*
Y214630D02*
D03*
Y189230D02*
D03*
Y163830D02*
D03*
Y113030D02*
D03*
D36*
X87080Y40640D02*
D03*
X201380D02*
D03*
Y13970D02*
D03*
X291380Y67310D02*
D03*
X177080Y13970D02*
D03*
D37*
X26670Y26670D02*
D03*
X327660D02*
D03*
Y276860D02*
D03*
X26670D02*
D03*
D38*
X327660Y55600D02*
D03*
Y190500D02*
D03*
D39*
X201380Y67310D02*
D03*
X291380Y13970D02*
D03*
X87080D02*
D03*
X291380Y40640D02*
D03*
X177080D02*
D03*
D40*
X105410Y113030D02*
D03*
D41*
X345000Y180000D02*
D03*
X340000Y170000D02*
D03*
X345000Y160000D02*
D03*
Y140000D02*
D03*
X330000Y90000D02*
D03*
X325000Y240000D02*
D03*
X320000Y90000D02*
D03*
X325000Y80000D02*
D03*
X320000Y70000D02*
D03*
X310000Y90000D02*
D03*
X315000Y80000D02*
D03*
X310000Y70000D02*
D03*
X300000Y250000D02*
D03*
Y230000D02*
D03*
X305000Y60000D02*
D03*
X295000Y280000D02*
D03*
Y200000D02*
D03*
Y180000D02*
D03*
X290000Y90000D02*
D03*
X295000Y80000D02*
D03*
X285000Y280000D02*
D03*
Y80000D02*
D03*
X275000Y280000D02*
D03*
X270000Y250000D02*
D03*
Y230000D02*
D03*
Y130000D02*
D03*
X275000Y120000D02*
D03*
Y60000D02*
D03*
X270000Y50000D02*
D03*
Y10000D02*
D03*
X265000Y280000D02*
D03*
Y60000D02*
D03*
X260000Y10000D02*
D03*
X255000Y280000D02*
D03*
X250000Y30000D02*
D03*
X255000Y20000D02*
D03*
X250000Y10000D02*
D03*
X245000Y280000D02*
D03*
X240000Y270000D02*
D03*
Y210000D02*
D03*
Y190000D02*
D03*
X245000Y180000D02*
D03*
X240000Y170000D02*
D03*
Y130000D02*
D03*
X245000Y120000D02*
D03*
X240000Y110000D02*
D03*
X245000Y100000D02*
D03*
X240000Y90000D02*
D03*
Y30000D02*
D03*
X245000Y20000D02*
D03*
X240000Y10000D02*
D03*
X235000Y280000D02*
D03*
X230000Y270000D02*
D03*
X235000Y260000D02*
D03*
X230000Y250000D02*
D03*
Y210000D02*
D03*
Y190000D02*
D03*
X235000Y180000D02*
D03*
X230000Y170000D02*
D03*
X235000Y160000D02*
D03*
X230000Y150000D02*
D03*
X235000Y120000D02*
D03*
X230000Y110000D02*
D03*
X235000Y100000D02*
D03*
X230000Y90000D02*
D03*
X235000Y80000D02*
D03*
Y60000D02*
D03*
X230000Y50000D02*
D03*
X235000Y20000D02*
D03*
X230000Y10000D02*
D03*
X225000Y280000D02*
D03*
X220000Y270000D02*
D03*
X225000Y260000D02*
D03*
X220000Y250000D02*
D03*
Y210000D02*
D03*
Y190000D02*
D03*
X225000Y180000D02*
D03*
X220000Y170000D02*
D03*
X225000Y160000D02*
D03*
X220000Y150000D02*
D03*
X225000Y120000D02*
D03*
X220000Y110000D02*
D03*
X225000Y100000D02*
D03*
X220000Y90000D02*
D03*
X225000Y80000D02*
D03*
Y60000D02*
D03*
X220000Y50000D02*
D03*
X225000Y20000D02*
D03*
X220000Y10000D02*
D03*
X215000Y280000D02*
D03*
X210000Y270000D02*
D03*
X215000Y260000D02*
D03*
X210000Y250000D02*
D03*
X215000Y240000D02*
D03*
X210000Y230000D02*
D03*
Y190000D02*
D03*
X215000Y180000D02*
D03*
X210000Y170000D02*
D03*
X215000Y160000D02*
D03*
X210000Y150000D02*
D03*
X215000Y140000D02*
D03*
X210000Y130000D02*
D03*
X215000Y100000D02*
D03*
X210000Y90000D02*
D03*
X215000Y80000D02*
D03*
Y60000D02*
D03*
X210000Y50000D02*
D03*
X215000Y40000D02*
D03*
Y20000D02*
D03*
X205000Y280000D02*
D03*
X200000Y270000D02*
D03*
X205000Y260000D02*
D03*
X200000Y250000D02*
D03*
X205000Y240000D02*
D03*
X200000Y230000D02*
D03*
Y190000D02*
D03*
X205000Y180000D02*
D03*
X200000Y170000D02*
D03*
X205000Y160000D02*
D03*
X200000Y150000D02*
D03*
X205000Y140000D02*
D03*
X200000Y130000D02*
D03*
X205000Y100000D02*
D03*
X200000Y90000D02*
D03*
X205000Y80000D02*
D03*
X195000Y280000D02*
D03*
X190000Y270000D02*
D03*
X195000Y260000D02*
D03*
X190000Y250000D02*
D03*
X195000Y240000D02*
D03*
X190000Y230000D02*
D03*
Y190000D02*
D03*
X195000Y180000D02*
D03*
X190000Y170000D02*
D03*
X195000Y160000D02*
D03*
X190000Y150000D02*
D03*
X195000Y140000D02*
D03*
X190000Y130000D02*
D03*
X195000Y120000D02*
D03*
X190000Y110000D02*
D03*
X195000Y80000D02*
D03*
X190000Y10000D02*
D03*
X185000Y280000D02*
D03*
X180000Y270000D02*
D03*
X185000Y260000D02*
D03*
X180000Y250000D02*
D03*
X185000Y240000D02*
D03*
X180000Y230000D02*
D03*
Y190000D02*
D03*
X185000Y180000D02*
D03*
X180000Y170000D02*
D03*
X185000Y160000D02*
D03*
X180000Y150000D02*
D03*
X185000Y140000D02*
D03*
X180000Y130000D02*
D03*
X185000Y120000D02*
D03*
X180000Y110000D02*
D03*
Y90000D02*
D03*
X175000Y280000D02*
D03*
X170000Y270000D02*
D03*
X175000Y260000D02*
D03*
X170000Y250000D02*
D03*
X175000Y240000D02*
D03*
X170000Y230000D02*
D03*
X175000Y180000D02*
D03*
Y160000D02*
D03*
Y140000D02*
D03*
Y120000D02*
D03*
Y100000D02*
D03*
Y80000D02*
D03*
Y60000D02*
D03*
X165000Y280000D02*
D03*
X160000Y270000D02*
D03*
X165000Y260000D02*
D03*
X160000Y250000D02*
D03*
X165000Y240000D02*
D03*
X160000Y230000D02*
D03*
Y70000D02*
D03*
X165000Y60000D02*
D03*
X160000Y50000D02*
D03*
X165000Y40000D02*
D03*
Y20000D02*
D03*
X160000Y10000D02*
D03*
X155000Y280000D02*
D03*
X150000Y270000D02*
D03*
X155000Y260000D02*
D03*
X150000Y250000D02*
D03*
X155000Y240000D02*
D03*
X150000Y190000D02*
D03*
X155000Y180000D02*
D03*
X150000Y170000D02*
D03*
X155000Y160000D02*
D03*
X150000Y150000D02*
D03*
X155000Y140000D02*
D03*
X150000Y130000D02*
D03*
X155000Y120000D02*
D03*
X150000Y110000D02*
D03*
X155000Y100000D02*
D03*
X150000Y90000D02*
D03*
X155000Y80000D02*
D03*
X150000Y70000D02*
D03*
X155000Y60000D02*
D03*
X150000Y50000D02*
D03*
X155000Y40000D02*
D03*
Y20000D02*
D03*
X150000Y10000D02*
D03*
X145000Y280000D02*
D03*
X140000Y270000D02*
D03*
X145000Y260000D02*
D03*
X140000Y250000D02*
D03*
X145000Y240000D02*
D03*
Y180000D02*
D03*
X140000Y170000D02*
D03*
X145000Y160000D02*
D03*
X140000Y150000D02*
D03*
X145000Y140000D02*
D03*
X140000Y130000D02*
D03*
X145000Y120000D02*
D03*
X140000Y110000D02*
D03*
X145000Y100000D02*
D03*
X140000Y90000D02*
D03*
X145000Y80000D02*
D03*
X140000Y70000D02*
D03*
X145000Y60000D02*
D03*
X140000Y50000D02*
D03*
X145000Y40000D02*
D03*
Y20000D02*
D03*
X140000Y10000D02*
D03*
X135000Y280000D02*
D03*
X130000Y270000D02*
D03*
X135000Y260000D02*
D03*
X130000Y230000D02*
D03*
Y170000D02*
D03*
X135000Y160000D02*
D03*
X130000Y150000D02*
D03*
X135000Y140000D02*
D03*
X130000Y130000D02*
D03*
X135000Y120000D02*
D03*
X130000Y110000D02*
D03*
X135000Y100000D02*
D03*
X130000Y90000D02*
D03*
X135000Y80000D02*
D03*
X130000Y70000D02*
D03*
X135000Y60000D02*
D03*
X130000Y50000D02*
D03*
X135000Y40000D02*
D03*
Y20000D02*
D03*
X130000Y10000D02*
D03*
X125000Y280000D02*
D03*
X120000Y270000D02*
D03*
X125000Y260000D02*
D03*
Y240000D02*
D03*
X120000Y230000D02*
D03*
Y190000D02*
D03*
Y170000D02*
D03*
X125000Y160000D02*
D03*
X120000Y150000D02*
D03*
X125000Y140000D02*
D03*
X120000Y130000D02*
D03*
X125000Y120000D02*
D03*
X120000Y110000D02*
D03*
X125000Y100000D02*
D03*
X120000Y90000D02*
D03*
X125000Y80000D02*
D03*
X120000Y70000D02*
D03*
X125000Y60000D02*
D03*
X120000Y50000D02*
D03*
X125000Y20000D02*
D03*
X120000Y10000D02*
D03*
X115000Y280000D02*
D03*
X110000Y90000D02*
D03*
X115000Y80000D02*
D03*
Y60000D02*
D03*
X110000Y30000D02*
D03*
X115000Y20000D02*
D03*
X110000Y10000D02*
D03*
X105000Y280000D02*
D03*
X100000Y90000D02*
D03*
X105000Y80000D02*
D03*
Y40000D02*
D03*
X100000Y30000D02*
D03*
X105000Y20000D02*
D03*
X100000Y10000D02*
D03*
X95000Y280000D02*
D03*
X90000Y250000D02*
D03*
Y230000D02*
D03*
Y150000D02*
D03*
Y110000D02*
D03*
Y90000D02*
D03*
X95000Y80000D02*
D03*
X85000Y280000D02*
D03*
Y120000D02*
D03*
X80000Y110000D02*
D03*
X85000Y100000D02*
D03*
X80000Y90000D02*
D03*
X85000Y80000D02*
D03*
Y60000D02*
D03*
X80000Y50000D02*
D03*
X70000Y250000D02*
D03*
Y230000D02*
D03*
Y150000D02*
D03*
X75000Y120000D02*
D03*
X70000Y110000D02*
D03*
X75000Y100000D02*
D03*
X70000Y90000D02*
D03*
X75000Y80000D02*
D03*
Y60000D02*
D03*
X70000Y50000D02*
D03*
X75000Y40000D02*
D03*
X70000Y10000D02*
D03*
X65000Y260000D02*
D03*
X60000Y250000D02*
D03*
X65000Y240000D02*
D03*
X60000Y230000D02*
D03*
X65000Y220000D02*
D03*
X60000Y210000D02*
D03*
X65000Y200000D02*
D03*
X60000Y190000D02*
D03*
X65000Y180000D02*
D03*
X60000Y170000D02*
D03*
X65000Y160000D02*
D03*
Y140000D02*
D03*
Y120000D02*
D03*
Y100000D02*
D03*
Y80000D02*
D03*
X60000Y30000D02*
D03*
X65000Y20000D02*
D03*
X60000Y10000D02*
D03*
X55000Y260000D02*
D03*
X50000Y250000D02*
D03*
X55000Y240000D02*
D03*
X50000Y230000D02*
D03*
X55000Y220000D02*
D03*
X50000Y210000D02*
D03*
X55000Y200000D02*
D03*
X50000Y190000D02*
D03*
X55000Y180000D02*
D03*
X45000Y240000D02*
D03*
X40000Y230000D02*
D03*
X45000Y220000D02*
D03*
X40000Y210000D02*
D03*
X45000Y200000D02*
D03*
X40000Y190000D02*
D03*
X45000Y180000D02*
D03*
X40000Y150000D02*
D03*
X45000Y140000D02*
D03*
X40000Y130000D02*
D03*
X45000Y120000D02*
D03*
X40000Y110000D02*
D03*
X45000Y100000D02*
D03*
Y80000D02*
D03*
X35000Y240000D02*
D03*
Y220000D02*
D03*
Y200000D02*
D03*
Y160000D02*
D03*
X30000Y150000D02*
D03*
X35000Y140000D02*
D03*
Y120000D02*
D03*
X30000Y110000D02*
D03*
X20000Y70000D02*
D03*
X25000Y60000D02*
D03*
X10000Y250000D02*
D03*
Y150000D02*
D03*
Y130000D02*
D03*
X15000Y120000D02*
D03*
X10000Y110000D02*
D03*
X15000Y100000D02*
D03*
X10000Y90000D02*
D03*
Y70000D02*
D03*
X15000Y60000D02*
D03*
X294640Y118110D02*
D03*
Y106680D02*
D03*
X332740Y152400D02*
D03*
X179070Y210820D02*
D03*
X149860Y201930D02*
D03*
M02*
