G04*
G04 #@! TF.GenerationSoftware,Altium Limited,Altium Designer,25.8.1 (18)*
G04*
G04 Layer_Color=128*
%FSLAX44Y44*%
%MOMM*%
G71*
G04*
G04 #@! TF.SameCoordinates,591AE639-5F93-457D-9E92-AC6843792E89*
G04*
G04*
G04 #@! TF.FilePolarity,Positive*
G04*
G01*
G75*
%ADD42C,0.1270*%
D42*
X311500Y110490D02*
X323500D01*
X317500Y104490D02*
Y116490D01*
X311500Y135890D02*
X323500D01*
X317500Y129890D02*
Y141890D01*
X311500Y161290D02*
X323500D01*
X317500Y155290D02*
Y167290D01*
X74410Y265430D02*
X85610D01*
X80010Y259830D02*
Y271030D01*
X74410Y240030D02*
X85610D01*
X80010Y234430D02*
Y245630D01*
X277610Y265430D02*
X288810D01*
X283210Y259830D02*
Y271030D01*
X251810Y138430D02*
X263810D01*
X257810Y132430D02*
Y144430D01*
X307670Y238760D02*
X317170D01*
X312420Y234010D02*
Y243510D01*
X82830Y40640D02*
X91330D01*
X87080Y36390D02*
Y44890D01*
X14650Y218640D02*
X25650D01*
X20150Y213140D02*
Y224140D01*
X14170Y26670D02*
X39170D01*
X26670Y14170D02*
Y39170D01*
X101510Y68580D02*
X108510D01*
X105010Y65080D02*
Y72080D01*
X19360Y81680D02*
X26360D01*
X22860Y78180D02*
Y85180D01*
X319910Y55600D02*
X335410D01*
X327660Y47850D02*
Y63350D01*
X315160Y26670D02*
X340160D01*
X327660Y14170D02*
Y39170D01*
X197130Y67310D02*
X205630D01*
X201380Y63060D02*
Y71560D01*
X99410Y113030D02*
X111410D01*
X105410Y107030D02*
Y119030D01*
X99410Y138430D02*
X111410D01*
X105410Y132430D02*
Y144430D01*
X99410Y163830D02*
X111410D01*
X105410Y157830D02*
Y169830D01*
X99410Y189230D02*
X111410D01*
X105410Y183230D02*
Y195230D01*
X99410Y214630D02*
X111410D01*
X105410Y208630D02*
Y220630D01*
X99410Y240030D02*
X111410D01*
X105410Y234030D02*
Y246030D01*
X99410Y265430D02*
X111410D01*
X105410Y259430D02*
Y271430D01*
X251810Y265430D02*
X263810D01*
X257810Y259430D02*
Y271430D01*
X251810Y240030D02*
X263810D01*
X257810Y234030D02*
Y246030D01*
X251810Y214630D02*
X263810D01*
X257810Y208630D02*
Y220630D01*
X251810Y189230D02*
X263810D01*
X257810Y183230D02*
Y195230D01*
X251810Y163830D02*
X263810D01*
X257810Y157830D02*
Y169830D01*
X251810Y113030D02*
X263810D01*
X257810Y107030D02*
Y119030D01*
X197130Y40640D02*
X205630D01*
X201380Y36390D02*
Y44890D01*
X319910Y190500D02*
X335410D01*
X327660Y182750D02*
Y198250D01*
X74410Y214630D02*
X85610D01*
X80010Y209030D02*
Y220230D01*
X74410Y189230D02*
X85610D01*
X80010Y183630D02*
Y194830D01*
X74410Y163830D02*
X85610D01*
X80010Y158230D02*
Y169430D01*
X74410Y138430D02*
X85610D01*
X80010Y132830D02*
Y144030D01*
X277610Y240030D02*
X288810D01*
X283210Y234430D02*
Y245630D01*
X277610Y214630D02*
X288810D01*
X283210Y209030D02*
Y220230D01*
X277610Y189230D02*
X288810D01*
X283210Y183630D02*
Y194830D01*
X277610Y163830D02*
X288810D01*
X283210Y158230D02*
Y169430D01*
X277610Y138430D02*
X288810D01*
X283210Y132830D02*
Y144030D01*
X197130Y13970D02*
X205630D01*
X201380Y9720D02*
Y18220D01*
X51510Y68580D02*
X58510D01*
X55010Y65080D02*
Y72080D01*
X14650Y193140D02*
X25650D01*
X20150Y187640D02*
Y198640D01*
X287130Y13970D02*
X295630D01*
X291380Y9720D02*
Y18220D01*
X315160Y276860D02*
X340160D01*
X327660Y264360D02*
Y289360D01*
X82830Y13970D02*
X91330D01*
X87080Y9720D02*
Y18220D01*
X14170Y276860D02*
X39170D01*
X26670Y264360D02*
Y289360D01*
X19360Y131680D02*
X26360D01*
X22860Y128180D02*
Y135180D01*
X14650Y167640D02*
X25650D01*
X20150Y162140D02*
Y173140D01*
X307670Y213360D02*
X317170D01*
X312420Y208610D02*
Y218110D01*
X320370Y226060D02*
X329870D01*
X325120Y221310D02*
Y230810D01*
X287130Y67310D02*
X295630D01*
X291380Y63060D02*
Y71560D01*
X287130Y40640D02*
X295630D01*
X291380Y36390D02*
Y44890D01*
X172830Y13970D02*
X181330D01*
X177080Y9720D02*
Y18220D01*
X172830Y40640D02*
X181330D01*
X177080Y36390D02*
Y44890D01*
X343000Y180000D02*
X347000D01*
X345000Y178000D02*
Y182000D01*
X338000Y170000D02*
X342000D01*
X340000Y168000D02*
Y172000D01*
X343000Y160000D02*
X347000D01*
X345000Y158000D02*
Y162000D01*
X343000Y140000D02*
X347000D01*
X345000Y138000D02*
Y142000D01*
X328000Y90000D02*
X332000D01*
X330000Y88000D02*
Y92000D01*
X323000Y240000D02*
X327000D01*
X325000Y238000D02*
Y242000D01*
X318000Y90000D02*
X322000D01*
X320000Y88000D02*
Y92000D01*
X323000Y80000D02*
X327000D01*
X325000Y78000D02*
Y82000D01*
X318000Y70000D02*
X322000D01*
X320000Y68000D02*
Y72000D01*
X308000Y90000D02*
X312000D01*
X310000Y88000D02*
Y92000D01*
X313000Y80000D02*
X317000D01*
X315000Y78000D02*
Y82000D01*
X308000Y70000D02*
X312000D01*
X310000Y68000D02*
Y72000D01*
X298000Y250000D02*
X302000D01*
X300000Y248000D02*
Y252000D01*
X298000Y230000D02*
X302000D01*
X300000Y228000D02*
Y232000D01*
X303000Y60000D02*
X307000D01*
X305000Y58000D02*
Y62000D01*
X293000Y280000D02*
X297000D01*
X295000Y278000D02*
Y282000D01*
X293000Y200000D02*
X297000D01*
X295000Y198000D02*
Y202000D01*
X293000Y180000D02*
X297000D01*
X295000Y178000D02*
Y182000D01*
X288000Y90000D02*
X292000D01*
X290000Y88000D02*
Y92000D01*
X293000Y80000D02*
X297000D01*
X295000Y78000D02*
Y82000D01*
X283000Y280000D02*
X287000D01*
X285000Y278000D02*
Y282000D01*
X283000Y80000D02*
X287000D01*
X285000Y78000D02*
Y82000D01*
X273000Y280000D02*
X277000D01*
X275000Y278000D02*
Y282000D01*
X268000Y250000D02*
X272000D01*
X270000Y248000D02*
Y252000D01*
X268000Y230000D02*
X272000D01*
X270000Y228000D02*
Y232000D01*
X268000Y130000D02*
X272000D01*
X270000Y128000D02*
Y132000D01*
X273000Y120000D02*
X277000D01*
X275000Y118000D02*
Y122000D01*
X273000Y60000D02*
X277000D01*
X275000Y58000D02*
Y62000D01*
X268000Y50000D02*
X272000D01*
X270000Y48000D02*
Y52000D01*
X268000Y10000D02*
X272000D01*
X270000Y8000D02*
Y12000D01*
X263000Y280000D02*
X267000D01*
X265000Y278000D02*
Y282000D01*
X263000Y60000D02*
X267000D01*
X265000Y58000D02*
Y62000D01*
X258000Y10000D02*
X262000D01*
X260000Y8000D02*
Y12000D01*
X253000Y280000D02*
X257000D01*
X255000Y278000D02*
Y282000D01*
X248000Y30000D02*
X252000D01*
X250000Y28000D02*
Y32000D01*
X253000Y20000D02*
X257000D01*
X255000Y18000D02*
Y22000D01*
X248000Y10000D02*
X252000D01*
X250000Y8000D02*
Y12000D01*
X243000Y280000D02*
X247000D01*
X245000Y278000D02*
Y282000D01*
X238000Y270000D02*
X242000D01*
X240000Y268000D02*
Y272000D01*
X238000Y210000D02*
X242000D01*
X240000Y208000D02*
Y212000D01*
X238000Y190000D02*
X242000D01*
X240000Y188000D02*
Y192000D01*
X243000Y180000D02*
X247000D01*
X245000Y178000D02*
Y182000D01*
X238000Y170000D02*
X242000D01*
X240000Y168000D02*
Y172000D01*
X238000Y130000D02*
X242000D01*
X240000Y128000D02*
Y132000D01*
X243000Y120000D02*
X247000D01*
X245000Y118000D02*
Y122000D01*
X238000Y110000D02*
X242000D01*
X240000Y108000D02*
Y112000D01*
X243000Y100000D02*
X247000D01*
X245000Y98000D02*
Y102000D01*
X238000Y90000D02*
X242000D01*
X240000Y88000D02*
Y92000D01*
X238000Y30000D02*
X242000D01*
X240000Y28000D02*
Y32000D01*
X243000Y20000D02*
X247000D01*
X245000Y18000D02*
Y22000D01*
X238000Y10000D02*
X242000D01*
X240000Y8000D02*
Y12000D01*
X233000Y280000D02*
X237000D01*
X235000Y278000D02*
Y282000D01*
X228000Y270000D02*
X232000D01*
X230000Y268000D02*
Y272000D01*
X233000Y260000D02*
X237000D01*
X235000Y258000D02*
Y262000D01*
X228000Y250000D02*
X232000D01*
X230000Y248000D02*
Y252000D01*
X228000Y210000D02*
X232000D01*
X230000Y208000D02*
Y212000D01*
X228000Y190000D02*
X232000D01*
X230000Y188000D02*
Y192000D01*
X233000Y180000D02*
X237000D01*
X235000Y178000D02*
Y182000D01*
X228000Y170000D02*
X232000D01*
X230000Y168000D02*
Y172000D01*
X233000Y160000D02*
X237000D01*
X235000Y158000D02*
Y162000D01*
X228000Y150000D02*
X232000D01*
X230000Y148000D02*
Y152000D01*
X233000Y120000D02*
X237000D01*
X235000Y118000D02*
Y122000D01*
X228000Y110000D02*
X232000D01*
X230000Y108000D02*
Y112000D01*
X233000Y100000D02*
X237000D01*
X235000Y98000D02*
Y102000D01*
X228000Y90000D02*
X232000D01*
X230000Y88000D02*
Y92000D01*
X233000Y80000D02*
X237000D01*
X235000Y78000D02*
Y82000D01*
X233000Y60000D02*
X237000D01*
X235000Y58000D02*
Y62000D01*
X228000Y50000D02*
X232000D01*
X230000Y48000D02*
Y52000D01*
X233000Y20000D02*
X237000D01*
X235000Y18000D02*
Y22000D01*
X228000Y10000D02*
X232000D01*
X230000Y8000D02*
Y12000D01*
X223000Y280000D02*
X227000D01*
X225000Y278000D02*
Y282000D01*
X218000Y270000D02*
X222000D01*
X220000Y268000D02*
Y272000D01*
X223000Y260000D02*
X227000D01*
X225000Y258000D02*
Y262000D01*
X218000Y250000D02*
X222000D01*
X220000Y248000D02*
Y252000D01*
X218000Y210000D02*
X222000D01*
X220000Y208000D02*
Y212000D01*
X218000Y190000D02*
X222000D01*
X220000Y188000D02*
Y192000D01*
X223000Y180000D02*
X227000D01*
X225000Y178000D02*
Y182000D01*
X218000Y170000D02*
X222000D01*
X220000Y168000D02*
Y172000D01*
X223000Y160000D02*
X227000D01*
X225000Y158000D02*
Y162000D01*
X218000Y150000D02*
X222000D01*
X220000Y148000D02*
Y152000D01*
X223000Y120000D02*
X227000D01*
X225000Y118000D02*
Y122000D01*
X218000Y110000D02*
X222000D01*
X220000Y108000D02*
Y112000D01*
X223000Y100000D02*
X227000D01*
X225000Y98000D02*
Y102000D01*
X218000Y90000D02*
X222000D01*
X220000Y88000D02*
Y92000D01*
X223000Y80000D02*
X227000D01*
X225000Y78000D02*
Y82000D01*
X223000Y60000D02*
X227000D01*
X225000Y58000D02*
Y62000D01*
X218000Y50000D02*
X222000D01*
X220000Y48000D02*
Y52000D01*
X223000Y20000D02*
X227000D01*
X225000Y18000D02*
Y22000D01*
X218000Y10000D02*
X222000D01*
X220000Y8000D02*
Y12000D01*
X213000Y280000D02*
X217000D01*
X215000Y278000D02*
Y282000D01*
X208000Y270000D02*
X212000D01*
X210000Y268000D02*
Y272000D01*
X213000Y260000D02*
X217000D01*
X215000Y258000D02*
Y262000D01*
X208000Y250000D02*
X212000D01*
X210000Y248000D02*
Y252000D01*
X213000Y240000D02*
X217000D01*
X215000Y238000D02*
Y242000D01*
X208000Y230000D02*
X212000D01*
X210000Y228000D02*
Y232000D01*
X208000Y190000D02*
X212000D01*
X210000Y188000D02*
Y192000D01*
X213000Y180000D02*
X217000D01*
X215000Y178000D02*
Y182000D01*
X208000Y170000D02*
X212000D01*
X210000Y168000D02*
Y172000D01*
X213000Y160000D02*
X217000D01*
X215000Y158000D02*
Y162000D01*
X208000Y150000D02*
X212000D01*
X210000Y148000D02*
Y152000D01*
X213000Y140000D02*
X217000D01*
X215000Y138000D02*
Y142000D01*
X208000Y130000D02*
X212000D01*
X210000Y128000D02*
Y132000D01*
X213000Y100000D02*
X217000D01*
X215000Y98000D02*
Y102000D01*
X208000Y90000D02*
X212000D01*
X210000Y88000D02*
Y92000D01*
X213000Y80000D02*
X217000D01*
X215000Y78000D02*
Y82000D01*
X213000Y60000D02*
X217000D01*
X215000Y58000D02*
Y62000D01*
X208000Y50000D02*
X212000D01*
X210000Y48000D02*
Y52000D01*
X213000Y40000D02*
X217000D01*
X215000Y38000D02*
Y42000D01*
X213000Y20000D02*
X217000D01*
X215000Y18000D02*
Y22000D01*
X203000Y280000D02*
X207000D01*
X205000Y278000D02*
Y282000D01*
X198000Y270000D02*
X202000D01*
X200000Y268000D02*
Y272000D01*
X203000Y260000D02*
X207000D01*
X205000Y258000D02*
Y262000D01*
X198000Y250000D02*
X202000D01*
X200000Y248000D02*
Y252000D01*
X203000Y240000D02*
X207000D01*
X205000Y238000D02*
Y242000D01*
X198000Y230000D02*
X202000D01*
X200000Y228000D02*
Y232000D01*
X198000Y190000D02*
X202000D01*
X200000Y188000D02*
Y192000D01*
X203000Y180000D02*
X207000D01*
X205000Y178000D02*
Y182000D01*
X198000Y170000D02*
X202000D01*
X200000Y168000D02*
Y172000D01*
X203000Y160000D02*
X207000D01*
X205000Y158000D02*
Y162000D01*
X198000Y150000D02*
X202000D01*
X200000Y148000D02*
Y152000D01*
X203000Y140000D02*
X207000D01*
X205000Y138000D02*
Y142000D01*
X198000Y130000D02*
X202000D01*
X200000Y128000D02*
Y132000D01*
X203000Y100000D02*
X207000D01*
X205000Y98000D02*
Y102000D01*
X198000Y90000D02*
X202000D01*
X200000Y88000D02*
Y92000D01*
X203000Y80000D02*
X207000D01*
X205000Y78000D02*
Y82000D01*
X193000Y280000D02*
X197000D01*
X195000Y278000D02*
Y282000D01*
X188000Y270000D02*
X192000D01*
X190000Y268000D02*
Y272000D01*
X193000Y260000D02*
X197000D01*
X195000Y258000D02*
Y262000D01*
X188000Y250000D02*
X192000D01*
X190000Y248000D02*
Y252000D01*
X193000Y240000D02*
X197000D01*
X195000Y238000D02*
Y242000D01*
X188000Y230000D02*
X192000D01*
X190000Y228000D02*
Y232000D01*
X188000Y190000D02*
X192000D01*
X190000Y188000D02*
Y192000D01*
X193000Y180000D02*
X197000D01*
X195000Y178000D02*
Y182000D01*
X188000Y170000D02*
X192000D01*
X190000Y168000D02*
Y172000D01*
X193000Y160000D02*
X197000D01*
X195000Y158000D02*
Y162000D01*
X188000Y150000D02*
X192000D01*
X190000Y148000D02*
Y152000D01*
X193000Y140000D02*
X197000D01*
X195000Y138000D02*
Y142000D01*
X188000Y130000D02*
X192000D01*
X190000Y128000D02*
Y132000D01*
X193000Y120000D02*
X197000D01*
X195000Y118000D02*
Y122000D01*
X188000Y110000D02*
X192000D01*
X190000Y108000D02*
Y112000D01*
X193000Y80000D02*
X197000D01*
X195000Y78000D02*
Y82000D01*
X188000Y10000D02*
X192000D01*
X190000Y8000D02*
Y12000D01*
X183000Y280000D02*
X187000D01*
X185000Y278000D02*
Y282000D01*
X178000Y270000D02*
X182000D01*
X180000Y268000D02*
Y272000D01*
X183000Y260000D02*
X187000D01*
X185000Y258000D02*
Y262000D01*
X178000Y250000D02*
X182000D01*
X180000Y248000D02*
Y252000D01*
X183000Y240000D02*
X187000D01*
X185000Y238000D02*
Y242000D01*
X178000Y230000D02*
X182000D01*
X180000Y228000D02*
Y232000D01*
X178000Y190000D02*
X182000D01*
X180000Y188000D02*
Y192000D01*
X183000Y180000D02*
X187000D01*
X185000Y178000D02*
Y182000D01*
X178000Y170000D02*
X182000D01*
X180000Y168000D02*
Y172000D01*
X183000Y160000D02*
X187000D01*
X185000Y158000D02*
Y162000D01*
X178000Y150000D02*
X182000D01*
X180000Y148000D02*
Y152000D01*
X183000Y140000D02*
X187000D01*
X185000Y138000D02*
Y142000D01*
X178000Y130000D02*
X182000D01*
X180000Y128000D02*
Y132000D01*
X183000Y120000D02*
X187000D01*
X185000Y118000D02*
Y122000D01*
X178000Y110000D02*
X182000D01*
X180000Y108000D02*
Y112000D01*
X178000Y90000D02*
X182000D01*
X180000Y88000D02*
Y92000D01*
X173000Y280000D02*
X177000D01*
X175000Y278000D02*
Y282000D01*
X168000Y270000D02*
X172000D01*
X170000Y268000D02*
Y272000D01*
X173000Y260000D02*
X177000D01*
X175000Y258000D02*
Y262000D01*
X168000Y250000D02*
X172000D01*
X170000Y248000D02*
Y252000D01*
X173000Y240000D02*
X177000D01*
X175000Y238000D02*
Y242000D01*
X168000Y230000D02*
X172000D01*
X170000Y228000D02*
Y232000D01*
X173000Y180000D02*
X177000D01*
X175000Y178000D02*
Y182000D01*
X173000Y160000D02*
X177000D01*
X175000Y158000D02*
Y162000D01*
X173000Y140000D02*
X177000D01*
X175000Y138000D02*
Y142000D01*
X173000Y120000D02*
X177000D01*
X175000Y118000D02*
Y122000D01*
X173000Y100000D02*
X177000D01*
X175000Y98000D02*
Y102000D01*
X173000Y80000D02*
X177000D01*
X175000Y78000D02*
Y82000D01*
X173000Y60000D02*
X177000D01*
X175000Y58000D02*
Y62000D01*
X163000Y280000D02*
X167000D01*
X165000Y278000D02*
Y282000D01*
X158000Y270000D02*
X162000D01*
X160000Y268000D02*
Y272000D01*
X163000Y260000D02*
X167000D01*
X165000Y258000D02*
Y262000D01*
X158000Y250000D02*
X162000D01*
X160000Y248000D02*
Y252000D01*
X163000Y240000D02*
X167000D01*
X165000Y238000D02*
Y242000D01*
X158000Y230000D02*
X162000D01*
X160000Y228000D02*
Y232000D01*
X158000Y70000D02*
X162000D01*
X160000Y68000D02*
Y72000D01*
X163000Y60000D02*
X167000D01*
X165000Y58000D02*
Y62000D01*
X158000Y50000D02*
X162000D01*
X160000Y48000D02*
Y52000D01*
X163000Y40000D02*
X167000D01*
X165000Y38000D02*
Y42000D01*
X163000Y20000D02*
X167000D01*
X165000Y18000D02*
Y22000D01*
X158000Y10000D02*
X162000D01*
X160000Y8000D02*
Y12000D01*
X153000Y280000D02*
X157000D01*
X155000Y278000D02*
Y282000D01*
X148000Y270000D02*
X152000D01*
X150000Y268000D02*
Y272000D01*
X153000Y260000D02*
X157000D01*
X155000Y258000D02*
Y262000D01*
X148000Y250000D02*
X152000D01*
X150000Y248000D02*
Y252000D01*
X153000Y240000D02*
X157000D01*
X155000Y238000D02*
Y242000D01*
X148000Y190000D02*
X152000D01*
X150000Y188000D02*
Y192000D01*
X153000Y180000D02*
X157000D01*
X155000Y178000D02*
Y182000D01*
X148000Y170000D02*
X152000D01*
X150000Y168000D02*
Y172000D01*
X153000Y160000D02*
X157000D01*
X155000Y158000D02*
Y162000D01*
X148000Y150000D02*
X152000D01*
X150000Y148000D02*
Y152000D01*
X153000Y140000D02*
X157000D01*
X155000Y138000D02*
Y142000D01*
X148000Y130000D02*
X152000D01*
X150000Y128000D02*
Y132000D01*
X153000Y120000D02*
X157000D01*
X155000Y118000D02*
Y122000D01*
X148000Y110000D02*
X152000D01*
X150000Y108000D02*
Y112000D01*
X153000Y100000D02*
X157000D01*
X155000Y98000D02*
Y102000D01*
X148000Y90000D02*
X152000D01*
X150000Y88000D02*
Y92000D01*
X153000Y80000D02*
X157000D01*
X155000Y78000D02*
Y82000D01*
X148000Y70000D02*
X152000D01*
X150000Y68000D02*
Y72000D01*
X153000Y60000D02*
X157000D01*
X155000Y58000D02*
Y62000D01*
X148000Y50000D02*
X152000D01*
X150000Y48000D02*
Y52000D01*
X153000Y40000D02*
X157000D01*
X155000Y38000D02*
Y42000D01*
X153000Y20000D02*
X157000D01*
X155000Y18000D02*
Y22000D01*
X148000Y10000D02*
X152000D01*
X150000Y8000D02*
Y12000D01*
X143000Y280000D02*
X147000D01*
X145000Y278000D02*
Y282000D01*
X138000Y270000D02*
X142000D01*
X140000Y268000D02*
Y272000D01*
X143000Y260000D02*
X147000D01*
X145000Y258000D02*
Y262000D01*
X138000Y250000D02*
X142000D01*
X140000Y248000D02*
Y252000D01*
X143000Y240000D02*
X147000D01*
X145000Y238000D02*
Y242000D01*
X143000Y180000D02*
X147000D01*
X145000Y178000D02*
Y182000D01*
X138000Y170000D02*
X142000D01*
X140000Y168000D02*
Y172000D01*
X143000Y160000D02*
X147000D01*
X145000Y158000D02*
Y162000D01*
X138000Y150000D02*
X142000D01*
X140000Y148000D02*
Y152000D01*
X143000Y140000D02*
X147000D01*
X145000Y138000D02*
Y142000D01*
X138000Y130000D02*
X142000D01*
X140000Y128000D02*
Y132000D01*
X143000Y120000D02*
X147000D01*
X145000Y118000D02*
Y122000D01*
X138000Y110000D02*
X142000D01*
X140000Y108000D02*
Y112000D01*
X143000Y100000D02*
X147000D01*
X145000Y98000D02*
Y102000D01*
X138000Y90000D02*
X142000D01*
X140000Y88000D02*
Y92000D01*
X143000Y80000D02*
X147000D01*
X145000Y78000D02*
Y82000D01*
X138000Y70000D02*
X142000D01*
X140000Y68000D02*
Y72000D01*
X143000Y60000D02*
X147000D01*
X145000Y58000D02*
Y62000D01*
X138000Y50000D02*
X142000D01*
X140000Y48000D02*
Y52000D01*
X143000Y40000D02*
X147000D01*
X145000Y38000D02*
Y42000D01*
X143000Y20000D02*
X147000D01*
X145000Y18000D02*
Y22000D01*
X138000Y10000D02*
X142000D01*
X140000Y8000D02*
Y12000D01*
X133000Y280000D02*
X137000D01*
X135000Y278000D02*
Y282000D01*
X128000Y270000D02*
X132000D01*
X130000Y268000D02*
Y272000D01*
X133000Y260000D02*
X137000D01*
X135000Y258000D02*
Y262000D01*
X128000Y230000D02*
X132000D01*
X130000Y228000D02*
Y232000D01*
X128000Y170000D02*
X132000D01*
X130000Y168000D02*
Y172000D01*
X133000Y160000D02*
X137000D01*
X135000Y158000D02*
Y162000D01*
X128000Y150000D02*
X132000D01*
X130000Y148000D02*
Y152000D01*
X133000Y140000D02*
X137000D01*
X135000Y138000D02*
Y142000D01*
X128000Y130000D02*
X132000D01*
X130000Y128000D02*
Y132000D01*
X133000Y120000D02*
X137000D01*
X135000Y118000D02*
Y122000D01*
X128000Y110000D02*
X132000D01*
X130000Y108000D02*
Y112000D01*
X133000Y100000D02*
X137000D01*
X135000Y98000D02*
Y102000D01*
X128000Y90000D02*
X132000D01*
X130000Y88000D02*
Y92000D01*
X133000Y80000D02*
X137000D01*
X135000Y78000D02*
Y82000D01*
X128000Y70000D02*
X132000D01*
X130000Y68000D02*
Y72000D01*
X133000Y60000D02*
X137000D01*
X135000Y58000D02*
Y62000D01*
X128000Y50000D02*
X132000D01*
X130000Y48000D02*
Y52000D01*
X133000Y40000D02*
X137000D01*
X135000Y38000D02*
Y42000D01*
X133000Y20000D02*
X137000D01*
X135000Y18000D02*
Y22000D01*
X128000Y10000D02*
X132000D01*
X130000Y8000D02*
Y12000D01*
X123000Y280000D02*
X127000D01*
X125000Y278000D02*
Y282000D01*
X118000Y270000D02*
X122000D01*
X120000Y268000D02*
Y272000D01*
X123000Y260000D02*
X127000D01*
X125000Y258000D02*
Y262000D01*
X123000Y240000D02*
X127000D01*
X125000Y238000D02*
Y242000D01*
X118000Y230000D02*
X122000D01*
X120000Y228000D02*
Y232000D01*
X118000Y190000D02*
X122000D01*
X120000Y188000D02*
Y192000D01*
X118000Y170000D02*
X122000D01*
X120000Y168000D02*
Y172000D01*
X123000Y160000D02*
X127000D01*
X125000Y158000D02*
Y162000D01*
X118000Y150000D02*
X122000D01*
X120000Y148000D02*
Y152000D01*
X123000Y140000D02*
X127000D01*
X125000Y138000D02*
Y142000D01*
X118000Y130000D02*
X122000D01*
X120000Y128000D02*
Y132000D01*
X123000Y120000D02*
X127000D01*
X125000Y118000D02*
Y122000D01*
X118000Y110000D02*
X122000D01*
X120000Y108000D02*
Y112000D01*
X123000Y100000D02*
X127000D01*
X125000Y98000D02*
Y102000D01*
X118000Y90000D02*
X122000D01*
X120000Y88000D02*
Y92000D01*
X123000Y80000D02*
X127000D01*
X125000Y78000D02*
Y82000D01*
X118000Y70000D02*
X122000D01*
X120000Y68000D02*
Y72000D01*
X123000Y60000D02*
X127000D01*
X125000Y58000D02*
Y62000D01*
X118000Y50000D02*
X122000D01*
X120000Y48000D02*
Y52000D01*
X123000Y20000D02*
X127000D01*
X125000Y18000D02*
Y22000D01*
X118000Y10000D02*
X122000D01*
X120000Y8000D02*
Y12000D01*
X113000Y280000D02*
X117000D01*
X115000Y278000D02*
Y282000D01*
X108000Y90000D02*
X112000D01*
X110000Y88000D02*
Y92000D01*
X113000Y80000D02*
X117000D01*
X115000Y78000D02*
Y82000D01*
X113000Y60000D02*
X117000D01*
X115000Y58000D02*
Y62000D01*
X108000Y30000D02*
X112000D01*
X110000Y28000D02*
Y32000D01*
X113000Y20000D02*
X117000D01*
X115000Y18000D02*
Y22000D01*
X108000Y10000D02*
X112000D01*
X110000Y8000D02*
Y12000D01*
X103000Y280000D02*
X107000D01*
X105000Y278000D02*
Y282000D01*
X98000Y90000D02*
X102000D01*
X100000Y88000D02*
Y92000D01*
X103000Y80000D02*
X107000D01*
X105000Y78000D02*
Y82000D01*
X103000Y40000D02*
X107000D01*
X105000Y38000D02*
Y42000D01*
X98000Y30000D02*
X102000D01*
X100000Y28000D02*
Y32000D01*
X103000Y20000D02*
X107000D01*
X105000Y18000D02*
Y22000D01*
X98000Y10000D02*
X102000D01*
X100000Y8000D02*
Y12000D01*
X93000Y280000D02*
X97000D01*
X95000Y278000D02*
Y282000D01*
X88000Y250000D02*
X92000D01*
X90000Y248000D02*
Y252000D01*
X88000Y230000D02*
X92000D01*
X90000Y228000D02*
Y232000D01*
X88000Y150000D02*
X92000D01*
X90000Y148000D02*
Y152000D01*
X88000Y110000D02*
X92000D01*
X90000Y108000D02*
Y112000D01*
X88000Y90000D02*
X92000D01*
X90000Y88000D02*
Y92000D01*
X93000Y80000D02*
X97000D01*
X95000Y78000D02*
Y82000D01*
X83000Y280000D02*
X87000D01*
X85000Y278000D02*
Y282000D01*
X83000Y120000D02*
X87000D01*
X85000Y118000D02*
Y122000D01*
X78000Y110000D02*
X82000D01*
X80000Y108000D02*
Y112000D01*
X83000Y100000D02*
X87000D01*
X85000Y98000D02*
Y102000D01*
X78000Y90000D02*
X82000D01*
X80000Y88000D02*
Y92000D01*
X83000Y80000D02*
X87000D01*
X85000Y78000D02*
Y82000D01*
X83000Y60000D02*
X87000D01*
X85000Y58000D02*
Y62000D01*
X78000Y50000D02*
X82000D01*
X80000Y48000D02*
Y52000D01*
X68000Y250000D02*
X72000D01*
X70000Y248000D02*
Y252000D01*
X68000Y230000D02*
X72000D01*
X70000Y228000D02*
Y232000D01*
X68000Y150000D02*
X72000D01*
X70000Y148000D02*
Y152000D01*
X73000Y120000D02*
X77000D01*
X75000Y118000D02*
Y122000D01*
X68000Y110000D02*
X72000D01*
X70000Y108000D02*
Y112000D01*
X73000Y100000D02*
X77000D01*
X75000Y98000D02*
Y102000D01*
X68000Y90000D02*
X72000D01*
X70000Y88000D02*
Y92000D01*
X73000Y80000D02*
X77000D01*
X75000Y78000D02*
Y82000D01*
X73000Y60000D02*
X77000D01*
X75000Y58000D02*
Y62000D01*
X68000Y50000D02*
X72000D01*
X70000Y48000D02*
Y52000D01*
X73000Y40000D02*
X77000D01*
X75000Y38000D02*
Y42000D01*
X68000Y10000D02*
X72000D01*
X70000Y8000D02*
Y12000D01*
X63000Y260000D02*
X67000D01*
X65000Y258000D02*
Y262000D01*
X58000Y250000D02*
X62000D01*
X60000Y248000D02*
Y252000D01*
X63000Y240000D02*
X67000D01*
X65000Y238000D02*
Y242000D01*
X58000Y230000D02*
X62000D01*
X60000Y228000D02*
Y232000D01*
X63000Y220000D02*
X67000D01*
X65000Y218000D02*
Y222000D01*
X58000Y210000D02*
X62000D01*
X60000Y208000D02*
Y212000D01*
X63000Y200000D02*
X67000D01*
X65000Y198000D02*
Y202000D01*
X58000Y190000D02*
X62000D01*
X60000Y188000D02*
Y192000D01*
X63000Y180000D02*
X67000D01*
X65000Y178000D02*
Y182000D01*
X58000Y170000D02*
X62000D01*
X60000Y168000D02*
Y172000D01*
X63000Y160000D02*
X67000D01*
X65000Y158000D02*
Y162000D01*
X63000Y140000D02*
X67000D01*
X65000Y138000D02*
Y142000D01*
X63000Y120000D02*
X67000D01*
X65000Y118000D02*
Y122000D01*
X63000Y100000D02*
X67000D01*
X65000Y98000D02*
Y102000D01*
X63000Y80000D02*
X67000D01*
X65000Y78000D02*
Y82000D01*
X58000Y30000D02*
X62000D01*
X60000Y28000D02*
Y32000D01*
X63000Y20000D02*
X67000D01*
X65000Y18000D02*
Y22000D01*
X58000Y10000D02*
X62000D01*
X60000Y8000D02*
Y12000D01*
X53000Y260000D02*
X57000D01*
X55000Y258000D02*
Y262000D01*
X48000Y250000D02*
X52000D01*
X50000Y248000D02*
Y252000D01*
X53000Y240000D02*
X57000D01*
X55000Y238000D02*
Y242000D01*
X48000Y230000D02*
X52000D01*
X50000Y228000D02*
Y232000D01*
X53000Y220000D02*
X57000D01*
X55000Y218000D02*
Y222000D01*
X48000Y210000D02*
X52000D01*
X50000Y208000D02*
Y212000D01*
X53000Y200000D02*
X57000D01*
X55000Y198000D02*
Y202000D01*
X48000Y190000D02*
X52000D01*
X50000Y188000D02*
Y192000D01*
X53000Y180000D02*
X57000D01*
X55000Y178000D02*
Y182000D01*
X43000Y240000D02*
X47000D01*
X45000Y238000D02*
Y242000D01*
X38000Y230000D02*
X42000D01*
X40000Y228000D02*
Y232000D01*
X43000Y220000D02*
X47000D01*
X45000Y218000D02*
Y222000D01*
X38000Y210000D02*
X42000D01*
X40000Y208000D02*
Y212000D01*
X43000Y200000D02*
X47000D01*
X45000Y198000D02*
Y202000D01*
X38000Y190000D02*
X42000D01*
X40000Y188000D02*
Y192000D01*
X43000Y180000D02*
X47000D01*
X45000Y178000D02*
Y182000D01*
X38000Y150000D02*
X42000D01*
X40000Y148000D02*
Y152000D01*
X43000Y140000D02*
X47000D01*
X45000Y138000D02*
Y142000D01*
X38000Y130000D02*
X42000D01*
X40000Y128000D02*
Y132000D01*
X43000Y120000D02*
X47000D01*
X45000Y118000D02*
Y122000D01*
X38000Y110000D02*
X42000D01*
X40000Y108000D02*
Y112000D01*
X43000Y100000D02*
X47000D01*
X45000Y98000D02*
Y102000D01*
X43000Y80000D02*
X47000D01*
X45000Y78000D02*
Y82000D01*
X33000Y240000D02*
X37000D01*
X35000Y238000D02*
Y242000D01*
X33000Y220000D02*
X37000D01*
X35000Y218000D02*
Y222000D01*
X33000Y200000D02*
X37000D01*
X35000Y198000D02*
Y202000D01*
X33000Y160000D02*
X37000D01*
X35000Y158000D02*
Y162000D01*
X28000Y150000D02*
X32000D01*
X30000Y148000D02*
Y152000D01*
X33000Y140000D02*
X37000D01*
X35000Y138000D02*
Y142000D01*
X33000Y120000D02*
X37000D01*
X35000Y118000D02*
Y122000D01*
X28000Y110000D02*
X32000D01*
X30000Y108000D02*
Y112000D01*
X18000Y70000D02*
X22000D01*
X20000Y68000D02*
Y72000D01*
X23000Y60000D02*
X27000D01*
X25000Y58000D02*
Y62000D01*
X8000Y250000D02*
X12000D01*
X10000Y248000D02*
Y252000D01*
X8000Y150000D02*
X12000D01*
X10000Y148000D02*
Y152000D01*
X8000Y130000D02*
X12000D01*
X10000Y128000D02*
Y132000D01*
X13000Y120000D02*
X17000D01*
X15000Y118000D02*
Y122000D01*
X8000Y110000D02*
X12000D01*
X10000Y108000D02*
Y112000D01*
X13000Y100000D02*
X17000D01*
X15000Y98000D02*
Y102000D01*
X8000Y90000D02*
X12000D01*
X10000Y88000D02*
Y92000D01*
X8000Y70000D02*
X12000D01*
X10000Y68000D02*
Y72000D01*
X13000Y60000D02*
X17000D01*
X15000Y58000D02*
Y62000D01*
X292640Y118110D02*
X296640D01*
X294640Y116110D02*
Y120110D01*
X292640Y106680D02*
X296640D01*
X294640Y104680D02*
Y108680D01*
X330740Y152400D02*
X334740D01*
X332740Y150400D02*
Y154400D01*
X177070Y210820D02*
X181070D01*
X179070Y208820D02*
Y212820D01*
X147860Y201930D02*
X151860D01*
X149860Y199930D02*
Y203930D01*
M02*
